<svg xmlns="http://www.w3.org/2000/svg" xmlns:xlink="http://www.w3.org/1999/xlink" width="449.28" height="368" viewBox="0 0 336.96 276"><defs><symbol overflow="visible" id="L"><path d="M.781-3.75C.727-3.8.703-3.848.703-3.89c.031-.25.172-.563.422-.938.414-.633.941-1.004 1.578-1.11.133-.007.235-.015.297-.015.313 0 .598.086.86.25.269.156.46.355.578.594.113-.157.187-.25.218-.282.332-.375.711-.562 1.14-.562.364 0 .661.105.891.312.227.211.344.465.344.766 0 .281-.078.516-.234.703a.776.776 0 0 1-.625.281.64.64 0 0 1-.422-.14.521.521 0 0 1-.156-.39c0-.415.222-.696.672-.845a.58.58 0 0 0-.141-.093.705.705 0 0 0-.39-.094.91.91 0 0 0-.266.031c-.336.149-.586.445-.75.89-.032.075-.164.579-.39 1.516-.231.93-.356 1.45-.376 1.563a1.827 1.827 0 0 0-.047.406c0 .211.063.383.188.516.125.125.289.187.5.187.383 0 .726-.16 1.031-.484.3-.32.508-.676.625-1.063.02-.082.04-.129.063-.14.03-.02.109-.031.234-.031.164 0 .25.039.25.109 0 .012-.012.058-.031.14-.149.563-.461 1.055-.938 1.47-.43.323-.875.484-1.344.484-.625 0-1.101-.282-1.421-.844-.262.406-.594.68-1 .812-.086.02-.2.032-.344.032-.524 0-.89-.188-1.11-.563a.953.953 0 0 1-.14-.531c0-.27.078-.5.234-.688a.798.798 0 0 1 .625-.28c.395 0 .594.187.594.562 0 .336-.164.574-.484.718a.359.359 0 0 1-.063.047l-.078.031c-.012.012-.024.016-.031.016h-.032c0 .031.063.074.188.125a.817.817 0 0 0 .36.078c.32 0 .597-.203.827-.61.102-.163.282-.75.532-1.75.05-.206.109-.437.171-.687.063-.257.11-.457.141-.593.031-.133.05-.211.063-.235a2.86 2.86 0 0 0 .078-.531.678.678 0 0 0-.188-.5.613.613 0 0 0-.484-.203c-.406 0-.762.156-1.063.469a2.562 2.562 0 0 0-.609 1.078c-.012.074-.031.12-.063.14a.752.752 0 0 1-.218.016zm0 0"/></symbol><symbol overflow="visible" id="P"><path d="M6.234-5.813c.125 0 .227.04.313.11.094.062.14.152.14.266 0 .117-.226 1.058-.671 2.828C5.578-.836 5.328.133 5.266.312a3.459 3.459 0 0 1-.688 1.22 3.641 3.641 0 0 1-1.11.874c-.491.239-.945.36-1.359.36-.687 0-1.152-.22-1.39-.657-.094-.125-.14-.304-.14-.53 0-.306.085-.544.265-.72.187-.168.379-.25.578-.25.394 0 .594.188.594.563 0 .332-.157.578-.47.734a.298.298 0 0 1-.062.032.295.295 0 0 0-.078.03c-.011.009-.023.016-.031.016L1.328 2c.031.05.129.11.297.172.133.05.273.078.422.078h.11c.155 0 .273-.012.359-.031.332-.094.648-.324.953-.688A3.69 3.69 0 0 0 4.188.25c.093-.3.14-.477.14-.531 0-.008-.012-.004-.031.015a.358.358 0 0 1-.078.047c-.336.239-.703.36-1.11.36-.46 0-.84-.106-1.14-.313-.293-.219-.48-.531-.563-.937a2.932 2.932 0 0 1-.015-.407c0-.218.007-.382.03-.5.063-.394.266-1.054.61-1.984.196-.531.297-.898.297-1.11a.838.838 0 0 0-.031-.265c-.024-.05-.074-.078-.156-.078h-.063c-.21 0-.406.094-.594.281-.293.293-.511.727-.656 1.297 0 .012-.008.027-.015.047a.188.188 0 0 1-.032.047l-.015.015c-.012.012-.028.016-.047.016h-.36C.305-3.8.281-3.836.281-3.86a.97.97 0 0 1 .047-.203c.188-.625.469-1.113.844-1.468.3-.282.617-.422.953-.422.383 0 .688.105.906.312.227.2.344.485.344.86-.023.168-.04.261-.047.281 0 .055-.07.246-.203.578-.367 1-.586 1.735-.656 2.203a1.857 1.857 0 0 0-.016.297c0 .344.05.61.156.797.114.18.313.266.594.266.207 0 .406-.051.594-.157a1.84 1.84 0 0 0 .422-.328c.093-.101.21-.242.36-.422a32.833 32.833 0 0 1 .25-1.063c.093-.35.175-.687.25-1 .343-1.35.534-2.062.577-2.124a.592.592 0 0 1 .578-.36zm0 0"/></symbol><symbol overflow="visible" id="Q"><path d="M1.594 2.188c.238.05.367.078.39.078.207 0 .383-.188.532-.563.113-.305.441-1.898.984-4.797.258-1.363.39-2.05.39-2.062v-.032h-.624c-.43 0-.653-.007-.672-.03-.063-.032-.074-.13-.031-.298.03-.132.05-.207.062-.218.02-.04.055-.063.11-.063.062-.008.273-.016.64-.016.426 0 .64-.003.64-.015 0-.02.04-.242.126-.672.082-.426.132-.688.156-.781.187-.852.473-1.446.86-1.782.35-.289.722-.437 1.109-.437.32.012.593.11.812.297.227.18.344.414.344.703a.987.987 0 0 1-.25.672.766.766 0 0 1-.61.266c-.398 0-.593-.188-.593-.563 0-.332.16-.578.484-.734l.11-.063A1.362 1.362 0 0 0 6.155-9c-.261 0-.43.168-.5.5-.074.273-.195.86-.36 1.766l-.171.89c0 .024.242.032.734.032.407 0 .649.007.735.015.082.012.125.043.125.094 0 .094-.032.242-.094.437-.023.043-.07.07-.14.079h-1.47l-.312 1.64c-.336 1.719-.543 2.758-.625 3.11-.305 1.363-.71 2.285-1.219 2.765-.336.29-.664.438-.984.438-.324 0-.594-.094-.813-.282a.867.867 0 0 1-.328-.703c0-.273.082-.5.25-.687a.789.789 0 0 1 .61-.266c.394 0 .593.188.593.563 0 .332-.156.57-.468.718zm0 0"/></symbol><symbol overflow="visible" id="M"><path d="M1.484-5.781c-.25 0-.449-.078-.593-.235a.872.872 0 0 1-.22-.609c0-.645.243-1.195.735-1.656a2.46 2.46 0 0 1 1.766-.703c.77 0 1.41.21 1.922.625.508.418.82.964.937 1.64.008.168.016.32.016.453 0 .524-.156 1.012-.469 1.47-.25.374-.758.89-1.516 1.546-.324.281-.777.695-1.359 1.234l-.781.766 1.016.016c1.414 0 2.164-.024 2.25-.079.039-.007.085-.101.14-.28.031-.095.094-.4.188-.923v-.03h.53v.03l-.374 2.47V0h-5v-.25c0-.188.008-.29.031-.313.008-.007.383-.437 1.125-1.28.977-1.095 1.61-1.813 1.89-2.157.602-.82.907-1.57.907-2.25 0-.594-.156-1.086-.469-1.484-.312-.407-.746-.61-1.297-.61-.523 0-.945.235-1.265.703-.024.032-.047.079-.078.141a.274.274 0 0 0-.047.078c0 .012.02.016.062.016a.68.68 0 0 1 .547.25.801.801 0 0 1 .219.562c0 .23-.078.422-.235.578a.76.76 0 0 1-.578.235zm0 0"/></symbol><symbol overflow="visible" id="N"><path d="M6.234 0c-.125-.031-.71-.047-1.75-.047-1.074 0-1.671.016-1.796.047h-.126v-.625h.422c.383-.008.618-.031.704-.063a.286.286 0 0 0 .171-.14c.008-.008.016-.25.016-.719v-.672h-3.5v-.625l2.031-3.11A431.58 431.58 0 0 1 4.5-9.108c.02-.008.113-.016.281-.016h.25l.078.078v6.203h1.235v.625H5.109V-.89a.25.25 0 0 0 .079.157c.07.062.328.101.765.109h.39V0zm-2.28-2.844v-4.5L1-2.859l1.469.015zm0 0"/></symbol><symbol overflow="visible" id="O"><path d="M.14-2.406v-.985h3.594v.985zm0 0"/></symbol><symbol overflow="visible" id="R"><path d="M4.484 3.25c0 .082-.078.125-.234.125h-.172l-.39-.328C2.07 1.578 1.265-.563 1.265-3.375c0-1.094.129-2.094.39-3C2.07-7.789 2.75-8.93 3.688-9.797c.07-.05.144-.11.218-.172.082-.07.14-.117.172-.14h.172c.102 0 .164.015.188.046.03.024.046.047.046.079 0 .03-.046.093-.14.187C2.945-8.317 2.25-6.172 2.25-3.359c0 2.804.695 4.937 2.094 6.406.093.101.14.172.14.203zm0 0"/></symbol><symbol overflow="visible" id="S"><path d="M.813-10.094l.046-.015h.297l.375.312C3.156-8.317 3.97-6.176 3.97-3.375c0 1.105-.133 2.105-.39 3C3.16 1.039 2.476 2.18 1.53 3.047c-.062.05-.136.11-.218.172-.075.07-.125.125-.157.156H1a.547.547 0 0 1-.219-.031c-.031-.024-.047-.07-.047-.14.008 0 .063-.06.157-.173C2.285 1.582 2.984-.55 2.984-3.375c0-2.82-.699-4.957-2.093-6.406-.094-.102-.149-.16-.157-.172 0-.07.024-.117.079-.14zm0 0"/></symbol><symbol overflow="visible" id="T"><path d="M.75-4.672c0-.125.063-.219.188-.281H9.53c.133.062.203.156.203.281 0 .094-.062.18-.187.25l-4.281.016H.969C.82-4.457.75-4.546.75-4.672zm0 2.61c0-.133.07-.223.219-.266h8.578a.249.249 0 0 0 .062.047l.063.047c.02.011.035.039.047.078.008.031.015.062.015.094 0 .117-.07.203-.203.265H.937C.813-1.859.75-1.945.75-2.063zm0 0"/></symbol><symbol overflow="visible" id="U"><path d="M1.328-3.094c-.137-.07-.203-.164-.203-.281 0-.113.066-.203.203-.266h7.828c.133.075.203.168.203.282 0 .105-.07.195-.203.265zm0 0"/></symbol><symbol overflow="visible" id="V"><path d="M5.61 0c-.157-.031-.872-.047-2.141-.047C2.207-.047 1.5-.03 1.344 0h-.157v-.625h.344c.52 0 .86-.008 1.016-.031.07-.008.18-.067.328-.172v-6.969c-.023 0-.059.016-.11.047a4.134 4.134 0 0 1-1.39.25h-.25v-.625h.25c.758-.02 1.39-.188 1.89-.5a2.46 2.46 0 0 0 .422-.313c.008-.03.063-.046.157-.046a.36.36 0 0 1 .234.078v8.078c.133.137.43.203.89.203h.798V0zm0 0"/></symbol><symbol overflow="visible" id="X"><path d="M.938-3.094C.813-3.164.75-3.258.75-3.375c0-.113.063-.203.188-.266h4.03v-2.015l.016-2.032c.094-.113.18-.171.266-.171.113 0 .203.07.266.203v4.015H9.53c.133.075.203.168.203.282 0 .105-.07.195-.203.265H5.516V.922c-.063.125-.157.187-.282.187-.117 0-.203-.062-.265-.187v-4.016zm0 0"/></symbol><symbol overflow="visible" id="W"><path d="M1.031-4.047a.51.51 0 0 1-.406-.172.594.594 0 0 1-.156-.422c0-.445.172-.832.515-1.156.344-.32.754-.484 1.235-.484.539 0 .988.148 1.344.437.351.293.57.672.656 1.14.008.118.015.22.015.313 0 .368-.109.711-.328 1.032-.18.261-.531.62-1.062 1.078-.23.199-.547.492-.953.875l-.547.531h.718c.989 0 1.516-.016 1.579-.047.02 0 .05-.062.093-.187.02-.07.063-.286.125-.641v-.031h.375v.031L3.97-.031V0h-3.5v-.172c0-.133.004-.207.015-.219.008-.007.274-.312.797-.906a52.339 52.339 0 0 0 1.328-1.5c.414-.57.625-1.098.625-1.578 0-.414-.109-.766-.328-1.047-.219-.281-.523-.422-.906-.422-.367 0-.664.168-.89.5l-.048.094c-.023.031-.03.055-.03.063h.046c.156 0 .281.058.375.171a.6.6 0 0 1 .156.407.594.594 0 0 1-.156.406.569.569 0 0 1-.422.156zm0 0"/></symbol><symbol overflow="visible" id="Y"><path d="M1.203-4.375c-.18 0-.312-.05-.406-.156a.578.578 0 0 1-.14-.407c0-.363.14-.664.421-.906.281-.238.61-.383.984-.437h.141c.219 0 .352.008.406.015.207.032.422.102.641.204.414.21.676.5.781.875a.93.93 0 0 1 .032.265c0 .367-.118.7-.344 1a1.9 1.9 0 0 1-.875.625c-.031.012-.031.016 0 .016.02.011.05.023.094.031.382.105.707.309.968.61.27.292.406.62.406.984 0 .261-.058.511-.171.75a1.88 1.88 0 0 1-.75.797A2.177 2.177 0 0 1 2.25.203c-.418 0-.79-.09-1.11-.266C.817-.237.599-.472.485-.765a1.056 1.056 0 0 1-.093-.453c0-.176.054-.32.171-.437a.614.614 0 0 1 .422-.172.587.587 0 0 1 .61.594.648.648 0 0 1-.125.39.582.582 0 0 1-.328.203l-.063.016c.332.281.723.422 1.172.422.344 0 .602-.164.781-.5.102-.207.156-.524.156-.953v-.188c0-.593-.203-.988-.609-1.187-.094-.04-.281-.067-.562-.078h-.407l-.03-.032c-.013-.007-.016-.054-.016-.14 0-.07.007-.117.03-.14.02-.02.036-.032.048-.032.175 0 .359-.016.546-.047.282-.04.489-.195.626-.469.144-.27.218-.597.218-.984 0-.406-.11-.68-.328-.828a.787.787 0 0 0-.437-.125c-.313 0-.59.086-.829.25a.262.262 0 0 0-.093.062.296.296 0 0 0-.063.078l-.031.047c.02 0 .04.008.063.016a.433.433 0 0 1 .312.187.574.574 0 0 1 .125.36.513.513 0 0 1-.156.375.527.527 0 0 1-.39.156zm0 0"/></symbol><symbol overflow="visible" id="Z"><path d="M8.484-4.484c0 .937-.164 1.761-.484 2.468-.313.7-.762 1.23-1.344 1.594-.574.367-1.246.547-2.015.547-.75 0-1.418-.18-2-.547-.586-.375-1.04-.906-1.36-1.594C.957-2.703.79-3.492.781-4.39v-.703c0-.914.156-1.726.469-2.437.32-.707.773-1.25 1.36-1.625.593-.375 1.265-.563 2.015-.563.77 0 1.445.188 2.031.563.582.367 1.032.902 1.344 1.61.32.71.484 1.526.484 2.452zm-1.25-.625c0-1.133-.23-2.004-.687-2.61-.461-.601-1.102-.906-1.922-.906-.793 0-1.422.305-1.89.906-.462.606-.696 1.45-.704 2.532v.703c0 1.105.227 1.976.688 2.609.469.625 1.11.938 1.922.938.812 0 1.441-.297 1.89-.891.446-.594.68-1.445.703-2.563zm0 0"/></symbol><symbol overflow="visible" id="aa"><path d="M6.953-3.484c0 1.093-.25 1.968-.75 2.625-.5.656-1.172.984-2.016.984-.898 0-1.593-.316-2.093-.953L2.047 0H.922v-10.11H2.14v3.766c.488-.601 1.164-.906 2.03-.906.864 0 1.54.328 2.032.984.5.649.75 1.54.75 2.672zm-1.219-.141c0-.82-.164-1.457-.484-1.906-.313-.457-.773-.688-1.375-.688-.805 0-1.383.371-1.734 1.11v3.093c.375.743.957 1.11 1.75 1.11.582 0 1.035-.223 1.359-.672.32-.457.484-1.14.484-2.047zm0 0"/></symbol><symbol overflow="visible" id="ab"><path d="M2.25 0H1.031v-10.11H2.25zm0 0"/></symbol><symbol overflow="visible" id="ac"><path d="M2.25 0H1.031v-7.125H2.25zM.922-9.016c0-.195.062-.363.187-.5.125-.132.301-.203.532-.203.238 0 .421.07.546.203a.716.716 0 0 1 .188.5c0 .2-.063.368-.188.5-.124.125-.308.188-.546.188-.23 0-.407-.063-.532-.188a.703.703 0 0 1-.187-.5zm0 0"/></symbol><symbol overflow="visible" id="ad"><path d="M.625-3.625c0-1.113.254-1.992.766-2.64.52-.657 1.21-.985 2.078-.985.844 0 1.504.281 1.984.844l.063-.719h1.109v9.86H5.406V-.657c-.492.523-1.14.781-1.953.781-.867 0-1.555-.332-2.062-1-.512-.664-.766-1.55-.766-2.656zm1.219.14c0 .813.172 1.454.515 1.922.344.47.805.704 1.391.704.727 0 1.281-.32 1.656-.97v-3.484c-.386-.625-.933-.937-1.64-.937a1.67 1.67 0 0 0-1.407.703c-.343.461-.515 1.149-.515 2.063zm0 0"/></symbol><symbol overflow="visible" id="ae"><path d="M5.313-.703c-.47.555-1.165.828-2.079.828-.761 0-1.34-.219-1.734-.656C1.102-.97.898-1.617.89-2.484v-4.641h1.22v4.61c0 1.074.44 1.609 1.328 1.609.925 0 1.539-.344 1.843-1.031v-5.188H6.5V0H5.344zm0 0"/></symbol><symbol overflow="visible" id="af"><path d="M3.875.125c-.969 0-1.758-.313-2.36-.938C.91-1.445.61-2.296.61-3.358v-.235c0-.695.133-1.32.407-1.875.27-.562.644-1 1.125-1.312a2.9 2.9 0 0 1 1.593-.469c.914 0 1.63.309 2.141.922.52.605.781 1.476.781 2.61v.5H1.828c.02.71.223 1.28.61 1.718.394.43.894.64 1.5.64.437 0 .8-.085 1.093-.265.301-.176.567-.41.797-.703l.734.578C5.97-.332 5.07.125 3.876.125zm-.14-6.375c-.5 0-.919.18-1.25.531-.337.356-.54.856-.61 1.5h3.563v-.093c-.032-.614-.2-1.086-.5-1.422-.305-.344-.704-.516-1.204-.516zm0 0"/></symbol><symbol overflow="visible" id="ah"><path d="M6.406-2.5H2.391L1.484 0H.188l3.656-9.594h1.11L8.624 0H7.328zm-3.64-1.047H6.03L4.391-8.03zm0 0"/></symbol><symbol overflow="visible" id="ai"><path d="M5.063-1.89c0-.333-.125-.587-.375-.766-.243-.188-.672-.344-1.297-.469-.618-.133-1.106-.29-1.47-.469-.355-.187-.62-.406-.796-.656-.168-.258-.25-.566-.25-.922 0-.582.242-1.07.734-1.469.489-.406 1.118-.609 1.891-.609.813 0 1.469.21 1.969.625.5.418.75.95.75 1.594H5c0-.332-.148-.617-.438-.86-.28-.238-.636-.359-1.062-.359-.438 0-.781.102-1.031.297a.89.89 0 0 0-.375.75c0 .293.113.516.344.672.226.148.644.289 1.25.422.613.136 1.109.296 1.484.484s.648.418.828.688c.188.261.281.585.281.968 0 .637-.258 1.149-.765 1.532-.5.374-1.157.562-1.97.562-.573 0-1.077-.102-1.515-.297A2.397 2.397 0 0 1 1-1.016a2.028 2.028 0 0 1-.375-1.171h1.219c.02.406.18.73.484.968.313.242.719.36 1.219.36.457 0 .82-.094 1.094-.282.28-.187.421-.437.421-.75zm0 0"/></symbol><symbol overflow="visible" id="aj"><path d="M3.25-1.781l1.656-5.344H6.22L3.344 1.094c-.438 1.187-1.14 1.781-2.11 1.781L1 2.859l-.453-.093V1.78l.328.032c.414 0 .738-.086.969-.25.226-.168.422-.477.578-.922l.265-.72L.142-7.124h1.328zm0 0"/></symbol><symbol overflow="visible" id="ak"><path d="M2.063-7.125l.03.797c.532-.613 1.239-.922 2.126-.922.988 0 1.664.383 2.031 1.14.238-.343.547-.617.922-.827.383-.208.832-.313 1.344-.313 1.562 0 2.359.824 2.39 2.469V0H9.687v-4.703c0-.508-.12-.89-.359-1.14-.23-.25-.617-.376-1.156-.376-.461 0-.84.137-1.14.407-.294.273-.466.632-.516 1.078V0h-1.22v-4.672c0-1.031-.51-1.547-1.53-1.547-.793 0-1.336.34-1.625 1.016V0H.92v-7.125zm0 0"/></symbol><symbol overflow="visible" id="al"><path d="M6.938-3.484c0 1.086-.25 1.96-.75 2.625-.493.656-1.157.984-2 .984-.868 0-1.547-.27-2.047-.813v3.422H.92v-9.859h1.11l.063.797c.5-.613 1.187-.922 2.062-.922.852 0 1.532.324 2.032.969.5.648.75 1.543.75 2.687zm-1.22-.141c0-.8-.171-1.43-.515-1.89-.344-.47-.812-.704-1.406-.704-.742 0-1.293.328-1.656.985v3.39c.363.657.921.985 1.671.985.583 0 1.047-.227 1.391-.688.344-.469.516-1.16.516-2.078zm0 0"/></symbol><symbol overflow="visible" id="am"><path d="M2.578-8.844v1.719h1.328v.938H2.578v4.421c0 .282.055.496.172.641.125.148.328.219.61.219.132 0 .328-.024.578-.078V0A3.824 3.824 0 0 1 3 .125c-.543 0-.953-.16-1.234-.484-.274-.332-.407-.801-.407-1.407v-4.421H.063v-.938h1.296v-1.719zm0 0"/></symbol><symbol overflow="visible" id="an"><path d="M.594-3.625c0-.695.133-1.32.406-1.875.281-.563.664-.992 1.156-1.297a3.127 3.127 0 0 1 1.672-.453c.969 0 1.75.34 2.344 1.016.601.668.906 1.558.906 2.671v.079c0 .699-.137 1.324-.406 1.875A3.067 3.067 0 0 1 5.547-.33c-.492.306-1.059.454-1.703.454-.969 0-1.758-.332-2.36-1-.593-.676-.89-1.566-.89-2.672zm1.234.14c0 .794.18 1.43.547 1.907.363.48.852.719 1.469.719.625 0 1.113-.239 1.469-.72.363-.487.546-1.171.546-2.046 0-.781-.187-1.41-.562-1.89a1.746 1.746 0 0 0-1.469-.735c-.594 0-1.078.242-1.453.719-.367.48-.547 1.164-.547 2.047zm0 0"/></symbol><clipPath id="a"><path d="M0 0h336.96v275.59H0zm0 0"/></clipPath><clipPath id="b"><path d="M.102 132.68H10.21v10.105H.1zm0 0"/></clipPath><clipPath id="c"><path d="M326.79 132.68h10.108v10.105H326.79zm0 0"/></clipPath><clipPath id="d"><path d="M14 0h309v275.59H14zm0 0"/></clipPath><clipPath id="e"><path d="M163.445 265.258h10.11v10.105h-10.11zm0 0"/></clipPath><clipPath id="f"><path d="M163.445.102h10.11v10.105h-10.11zm0 0"/></clipPath><clipPath id="g"><path d="M0 14h336.96v247H0zm0 0"/></clipPath><clipPath id="h"><path d="M0 160h152v115.59H0zm0 0"/></clipPath><clipPath id="i"><path d="M0 165h28v33H0zm0 0"/></clipPath><clipPath id="j"><path d="M-1.969 174.438l36.942-8.52 8.523 36.926-36.941 8.52zm0 0"/></clipPath><clipPath id="k"><path d="M132 257h29v18.59h-29zm0 0"/></clipPath><clipPath id="l"><path d="M159.406 257.816l.95 37.883-37.903.95-.95-37.883zm0 0"/></clipPath><clipPath id="m"><path d="M154 0h29v275.59h-29zm0 0"/></clipPath><clipPath id="n"><path d="M136 0h29v27h-29zm0 0"/></clipPath><clipPath id="o"><path d="M163.7-.04l.488 37.895-37.91.489-.489-37.895zm0 0"/></clipPath><clipPath id="p"><path d="M163 258h29v17.59h-29zm0 0"/></clipPath><clipPath id="q"><path d="M190.605 258.434l.489 37.89-37.91.488-.489-37.89zm0 0"/></clipPath><clipPath id="r"><path d="M185 0h151.96v115H185zm0 0"/></clipPath><clipPath id="s"><path d="M168 0h28v28h-28zm0 0"/></clipPath><clipPath id="t"><path d="M194.691.371l.95 37.883-37.899.95-.949-37.884zm0 0"/></clipPath><clipPath id="u"><path d="M318 79h18.96v36H318zm0 0"/></clipPath><clipPath id="v"><path d="M318.613 87.742l36.942-8.52 8.523 36.926-36.945 8.52zm0 0"/></clipPath><clipPath id="w"><path d="M0 94h336.96v87H0zm0 0"/></clipPath><clipPath id="x"><path d="M0 162h28v32H0zm0 0"/></clipPath><clipPath id="y"><path d="M-2.125 171.32l36.781-9.187 9.192 36.765-36.782 9.184zm0 0"/></clipPath><clipPath id="z"><path d="M318 82h18.96v36H318zm0 0"/></clipPath><clipPath id="A"><path d="M318.527 91.234l36.782-9.187 9.191 36.766-36.781 9.183zm0 0"/></clipPath><clipPath id="B"><path d="M152 0h3v275.59h-3zm0 0"/></clipPath><clipPath id="C"><path d="M144 249h28v26.59h-28zm0 0"/></clipPath><clipPath id="D"><path d="M144.281 275.453l.04-37.894 37.91.039-.036 37.894zm0 0"/></clipPath><clipPath id="E"><path d="M144 0h28v17h-28zm0 0"/></clipPath><clipPath id="F"><path d="M144.54 16.832l.038-37.895 37.914.04-.039 37.894zm0 0"/></clipPath><clipPath id="G"><path d="M182 0h3v275.59h-3zm0 0"/></clipPath><clipPath id="H"><path d="M174 249h28v26.59h-28zm0 0"/></clipPath><clipPath id="I"><path d="M174.918 275.453l.039-37.894 37.91.039-.035 37.894zm0 0"/></clipPath><clipPath id="J"><path d="M175 0h28v17h-28zm0 0"/></clipPath><clipPath id="K"><path d="M175.176 16.832l.039-37.895 37.914.04-.04 37.894zm0 0"/></clipPath></defs><g clip-path="url(#a)" fill="#fff"><path d="M0 0h337v275.59H0zm0 0"/><path d="M0 0h337v275.59H0zm0 0"/></g><path d="M6.75 183.999h436.5" transform="scale(.74889 .74854)" fill="none" stroke="#000"/><g clip-path="url(#b)"><path d="M10.21 132.68L.103 137.73l10.109 5.055-5.055-5.055zm0 0"/></g><g clip-path="url(#c)"><path d="M326.79 132.68l10.108 5.05-10.109 5.055 5.055-5.055zm0 0"/></g><g clip-path="url(#d)"><path d="M265.91 0v367.998M306.82 0v367.998M347.728 0v367.998M388.639 0v367.998M429.547 0v367.998M184.09 0v367.998M143.18 0v367.998M102.272 0v367.998M61.361 0v367.998M20.453 0v367.998" transform="scale(.74889 .74854)" fill="none" stroke-linecap="round" stroke-linejoin="round" stroke="#666" stroke-opacity=".251"/></g><path d="M225 361.25V6.748" transform="scale(.74889 .74854)" fill="none" stroke="#000"/><g clip-path="url(#e)"><path d="M163.445 265.258l5.055 10.105 5.055-10.105-5.055 5.05zm0 0"/></g><g clip-path="url(#f)"><path d="M163.445 10.207L168.5.102l5.055 10.105-5.055-5.055zm0 0"/></g><g clip-path="url(#g)"><path d="M0 143.112h450M0 102.22h450M0 61.333h450M0 20.446h450M0 224.891h450M0 265.778h450M0 306.665h450M0 347.557h450" transform="scale(.74889 .74854)" fill="none" stroke-linecap="round" stroke-linejoin="round" stroke="#666" stroke-opacity=".251"/></g><g clip-path="url(#h)"><path d="M0 244.44l1.356-.313 1.351-.314 1.356-.313 1.351-.308 1.356-.313 1.351-.308 1.357-.313 1.35-.308 1.357-.307 1.356-.314 1.35-.307 1.357-.308 1.351-.308 1.356-.308 1.351-.308 1.356-.308 1.351-.303 1.356-.308 1.351-.302 1.357-.308 1.356-.303 1.35-.302 1.357-.308 1.35-.303 1.357-.303 1.351-.302 1.356-.298 1.351-.302 1.356-.298 1.356-.303 1.351-.297 1.357-.297 1.35-.298 1.357-.297 1.35-.298 1.357-.297 1.35-.298 2.713-.584 1.351-.292 1.356-.298 1.351-.287 1.356-.292 1.351-.292 1.357-.287 1.35-.287 2.713-.574 1.35-.288 1.357-.287 1.351-.281 1.356-.282 1.351-.282 1.356-.282 1.351-.276 1.356-.282 1.351-.277 1.357-.276 1.356-.272 1.35-.276 1.357-.272 1.35-.27 1.357-.267 1.351-.271 1.356-.267 1.351-.266 2.712-.522 1.351-.26 1.357-.256 1.35-.261 1.357-.25 1.35-.256 1.357-.25 1.35-.246 1.357-.25 1.356-.246 1.351-.24 1.356-.24 1.351-.235 1.356-.235 1.351-.23 1.357-.229 1.35-.23 1.357-.219 1.35-.219 1.357-.219 1.356-.214 1.351-.209 1.356-.203 1.351-.204 1.356-.193 1.351-.193 1.356-.193 1.351-.183 1.357-.177 1.356-.172 1.35-.167 1.357-.162 1.35-.157 1.357-.15 1.351-.142 1.356-.135 1.351-.126 1.356-.12 1.356-.11 1.351-.104 1.357-.088 1.35-.084 1.357-.068 1.35-.057 1.357-.047 1.35-.031 1.357-.016h1.356l1.351.016 1.356.03 1.351.058 1.356.079 1.351.099 1.357.13 1.35.151 1.357.188 1.35.225 1.357.26 1.356.303 1.351.355 1.356.407 1.351.47 1.356.537 1.351.616 1.356.71 1.351.814 1.357.934 1.356 1.086 1.35 1.262 1.357 1.467 1.35 1.732 1.357 2.046 1.351 2.453 1.356 2.98 1.351 3.673 1.356 4.624 1.356 5.97 1.351 7.979 1.357 11.162 1.35 16.673 1.357 27.538 1.35 53.996" transform="scale(.74889 .74854)" fill="none" stroke-width="2.25" stroke-linecap="round" stroke-linejoin="round" stroke="#00f"/></g><g clip-path="url(#i)"><g clip-path="url(#j)"><path d="M0 5.2c4.04 0 7.99 1.72 9.999 5.19M10 0C7.99 3.471 4.04 5.2 0 5.2" transform="matrix(1.64187 -.3786 .37878 1.6411 -1.97 174.438)" fill="none" stroke="#00f"/></g></g><g clip-path="url(#k)"><g clip-path="url(#l)"><path d="M10.001 5.2c-4.042 0-7.992 1.72-10.002 5.19M-.001 0c2.011 3.47 5.96 5.2 10.002 5.202" transform="matrix(.04224 1.68368 -1.68447 .04222 159.404 257.817)" fill="none" stroke="#00f"/></g></g><g clip-path="url(#m)"><path d="M206.89.1l.245 18.859.24 15.63.245 13.155.245 11.235.24 9.702.245 8.47.24 7.451.245 6.612.246 5.907.24 5.308.245 4.8.24 4.358.245 3.977.245 3.647.24 3.35.245 3.095.24 2.87.245 2.662.245 2.484.24 2.317.245 2.17.24 2.036.245 1.92.246 1.806.24 1.706.245 1.618.24 1.53.245 1.455.245 1.383.24 1.32.245 1.258.24 1.2.245 1.153.245 1.102.24 1.059.245 1.012.24.981.245.94.246.908.24.876.245.851.24.82.245.793.245.772.24.746.245.73.24.705.245.69.245.672.24.653.245.641.24.627.246.61.245.6.24.59.245.574.24.569.245.558.245.548.24.543.245.532.24.527.49 1.034.24.511.245.506.24.501.49.992.24.49.246.49.24.486.245.485.245.49.24.486.49.97.24.491.245.491.24.49.49.992.24.501.246.506.24.506.245.517.245.522.24.527.245.532.24.543.245.548.245.558.24.564.245.58.24.589.245.595.246.616.24.626.245.636.24.658.245.668.245.689.24.71.245.725.24.746.245.772.245.794.24.824.245.846.24.876.246.908.245.945.24.976.245 1.017.24 1.054.245 1.107.245 1.148.24 1.205.245 1.258.24 1.315.245 1.388.245 1.45.24 1.535.245 1.613.24 1.706.246 1.81.245 1.916.24 2.04.245 2.166.24 2.322.245 2.48.245 2.666.24 2.865.245 3.094.24 3.356.245 3.642.245 3.977.24 4.363.245 4.795.24 5.313.246 5.907.245 6.612.24 7.452.245 8.464.24 9.707.245 11.23.245 13.161.24 15.624.245 18.86" transform="scale(.74889 .74854)" fill="none" stroke-width="2.25" stroke-linecap="round" stroke-linejoin="round" stroke="#00f"/></g><g clip-path="url(#n)"><g clip-path="url(#o)"><path d="M0 5.2C4.04 5.2 7.99 6.92 9.998 10.39M10.001 0C7.989 3.47 4.04 5.198-.001 5.2" transform="matrix(.02172 1.68407 -1.68486 .0217 163.7 -.037)" fill="none" stroke="#00f"/></g></g><g clip-path="url(#p)"><g clip-path="url(#q)"><path d="M10 5.2C5.96 5.2 2.01 6.92 0 10.39M0 0c2.01 3.47 5.96 5.201 10 5.2" transform="matrix(.02172 1.68407 -1.68486 .0217 190.606 258.433)" fill="none" stroke="#00f"/></g></g><g clip-path="url(#r)"><path d="M248.28.788l1.35 53.996 1.356 27.533 1.351 16.673 1.357 11.162 1.35 7.98 1.357 5.97 1.356 4.623 1.35 3.673 1.357 2.98 1.351 2.453 1.356 2.05 1.351 1.728 1.356 1.472 1.351 1.257 1.356 1.086 1.357.94 1.35.813 1.357.71 1.35.616 1.357.537 1.35.465 1.357.407 1.351.355 1.356.302 1.356.261 1.351.225 1.356.187 1.351.157 1.357.125 1.35.105 1.357.073 1.35.057 1.357.037 1.35.015h1.357l1.356-.015 1.351-.037 1.356-.042 1.351-.057 1.356-.073 1.351-.078 1.357-.094 1.35-.1 1.357-.109 1.356-.12 1.35-.13 1.357-.136 1.351-.141 1.356-.146 1.351-.157 1.356-.162 1.351-.167 2.713-.354 1.35-.183 1.357-.188 1.35-.193 1.357-.198 1.35-.204 1.357-.203 1.351-.21 1.356-.213 1.351-.214 1.356-.22 1.356-.224 1.351-.224 1.357-.23 1.35-.234 1.357-.23 1.35-.24 1.357-.24 1.35-.24 2.713-.49 1.351-.251 1.356-.25 1.351-.251 1.356-.256 1.351-.256 1.357-.26 1.35-.256 1.357-.266 1.356-.261 1.35-.266 1.357-.267 1.351-.266 1.356-.271 1.351-.271 1.356-.272 1.351-.271 2.713-.553 1.35-.277 1.357-.277 1.35-.281 1.357-.282 1.35-.282 1.357-.282 1.351-.281 1.356-.288 1.351-.281 2.712-.574 1.351-.293 1.357-.287 1.35-.292 1.357-.287 1.35-.292 1.357-.292 1.35-.293 1.357-.297 1.356-.292 1.351-.298 1.356-.292 1.351-.297 1.356-.298 1.351-.297 1.357-.298 1.35-.302 1.357-.298 1.356-.303 1.35-.297 1.357-.303 1.351-.302 1.356-.303 1.351-.303 1.356-.302 1.351-.303 1.356-.308 1.357-.303 1.35-.308 1.357-.302 1.35-.308 1.357-.308 1.35-.308 1.357-.308 1.351-.308 1.356-.308 1.351-.307 2.712-.616 1.351-.313 1.357-.308 1.35-.313 1.357-.308 1.35-.313 1.357-.313 1.35-.314 1.357-.307" transform="scale(.74889 .74854)" fill="none" stroke-width="2.25" stroke-linecap="round" stroke-linejoin="round" stroke="#00f"/></g><g clip-path="url(#s)"><g clip-path="url(#t)"><path d="M0 5.2c4.04 0 7.99 1.72 10 5.19M10 0C7.99 3.47 4.04 5.2 0 5.2" transform="matrix(.04224 1.68368 -1.68447 .04222 194.692 .37)" fill="none" stroke="#00f"/></g></g><g clip-path="url(#u)"><g clip-path="url(#v)"><path d="M10 5.201C5.96 5.2 2.009 6.921 0 10.39M0 0C2.011 3.47 5.961 5.2 10 5.202" transform="matrix(1.64187 -.37861 .37879 1.6411 318.612 87.743)" fill="none" stroke="#00f"/></g></g><g clip-path="url(#w)"><path d="M-.203 179l4.523-1.133 2.262-.562.48-.121a.828.828 0 0 1 .637.093.81.81 0 0 1 .383.52.794.794 0 0 1-.094.637.81.81 0 0 1-.52.382l-.48.121-2.261.567-2.262.562-2.262.567a.828.828 0 0 1-.637-.094.81.81 0 0 1-.382-.52.794.794 0 0 1 .093-.636.81.81 0 0 1 .52-.383zm14.531-3.629l1.3-.328 2.263-.563 2.261-.566 1.442-.36a.828.828 0 0 1 .636.094.81.81 0 0 1 .383.52.81.81 0 0 1-.093.637.81.81 0 0 1-.52.382l-1.441.36-4.524 1.133-1.3.324a.826.826 0 0 1-.637-.094.81.81 0 0 1-.383-.52.794.794 0 0 1 .094-.636.81.81 0 0 1 .52-.383zm14.531-3.629l.34-.086 4.524-1.133 2.261-.562.141-.035a.829.829 0 0 1 .637.094.81.81 0 0 1 .383.52.81.81 0 0 1-.094.636.81.81 0 0 1-.52.383l-.14.035-2.262.566-2.262.563-2.262.566-.34.086a.81.81 0 0 1-.636-.098.792.792 0 0 1-.383-.515.794.794 0 0 1 .094-.637.81.81 0 0 1 .52-.383zm14.532-3.633l1.64-.41 2.262-.562 2.262-.567 1.097-.273a.819.819 0 0 1 .641.094.81.81 0 0 1 .383.52.826.826 0 0 1-.094.636.81.81 0 0 1-.52.383l-1.101.277-2.262.563-2.261.566-1.641.41a.81.81 0 0 1-.637-.098.792.792 0 0 1-.383-.515.794.794 0 0 1 .094-.637.828.828 0 0 1 .52-.387zm14.527-3.629l.684-.167 2.261-.567 2.262-.562 2.059-.516a.803.803 0 0 1 .64.094.81.81 0 0 1 .383.52.828.828 0 0 1-.094.636.81.81 0 0 1-.52.383l-2.062.515-2.261.563-2.262.566-.68.172a.81.81 0 0 1-.637-.097.82.82 0 0 1-.386-.516.81.81 0 0 1 .097-.637.808.808 0 0 1 .516-.387zm14.531-3.628l1.985-.497 2.261-.562 2.262-.566.758-.188a.803.803 0 0 1 .64.094c.2.12.325.293.383.52a.828.828 0 0 1-.093.636.81.81 0 0 1-.52.383l-.758.191-2.262.563-2.261.566-1.985.496a.81.81 0 0 1-.636-.097.82.82 0 0 1-.387-.516.82.82 0 0 1 .098-.64.815.815 0 0 1 .515-.383zm14.531-3.63l1.024-.253 2.262-.567 2.261-.562 1.72-.43a.803.803 0 0 1 .64.094c.199.121.324.293.383.516a.836.836 0 0 1-.614 1.023l-1.719.43-2.261.562-2.262.567-1.023.253a.794.794 0 0 1-.637-.093.83.83 0 0 1-.29-1.157.815.815 0 0 1 .516-.382zm14.532-3.628l.062-.016 2.262-.562 4.523-1.133.418-.102a.805.805 0 0 1 .641.094c.2.117.324.293.383.516a.82.82 0 0 1-.098.64.805.805 0 0 1-.516.383l-.417.106-2.262.562-2.262.566-2.262.563-.062.016a.794.794 0 0 1-.637-.094.815.815 0 0 1-.387-.52.813.813 0 0 1 .098-.636.802.802 0 0 1 .516-.383zm14.531-3.63l1.363-.339 2.262-.566 2.262-.563 1.379-.348a.81.81 0 0 1 .636.098.808.808 0 0 1 .387.516.81.81 0 0 1-.098.636.798.798 0 0 1-.515.387l-1.38.344-2.26.566-2.263.563-1.363.34a.794.794 0 0 1-.637-.094.815.815 0 0 1-.386-.52.813.813 0 0 1 .097-.636c.118-.2.29-.328.516-.383zm14.531-3.628l.403-.102 2.261-.562 4.524-1.133.078-.02a.81.81 0 0 1 .637.098c.199.117.328.29.386.516a.81.81 0 0 1-.097.637.82.82 0 0 1-.516.386l-.078.02-2.262.562-2.262.567-2.261.562-.403.102a.821.821 0 0 1-.64-.094.823.823 0 0 1-.383-.52.813.813 0 0 1 .098-.636c.117-.2.289-.328.515-.383zm14.531-3.629l1.704-.426 2.261-.566 2.262-.563 1.04-.261a.81.81 0 0 1 .636.097c.199.117.328.29.387.516a.81.81 0 0 1-.098.637.82.82 0 0 1-.516.386l-1.039.258-2.262.567-2.261.562-1.703.426a.819.819 0 0 1-.641-.094.823.823 0 0 1-.383-.52.826.826 0 0 1 .094-.636.81.81 0 0 1 .52-.383zm14.532-3.629l.742-.187 2.262-.563 2.261-.566 2-.5a.826.826 0 0 1 .637.093c.2.122.328.293.387.52a.81.81 0 0 1-.098.637.802.802 0 0 1-.516.383l-2 .5-2.261.566-2.262.562-.742.188a.836.836 0 0 1-1.024-.613.826.826 0 0 1 .094-.637.81.81 0 0 1 .52-.383zm14.531-3.629l2.043-.512 2.262-.566 2.261-.562.7-.176a.826.826 0 0 1 .636.094.81.81 0 0 1 .383.52.794.794 0 0 1-.094.636.812.812 0 0 1-.515.383l-.7.175-2.261.567-2.262.562-2.043.512a.836.836 0 0 1-.64-.094.81.81 0 0 1-.383-.52.826.826 0 0 1 .093-.636.81.81 0 0 1 .52-.383zm14.531-3.629l1.082-.273 2.262-.563 2.262-.566 1.66-.414a.826.826 0 0 1 .637.094.81.81 0 0 1 .382.52.794.794 0 0 1-.093.636.81.81 0 0 1-.52.383l-1.656.414-4.524 1.133-1.086.27a.813.813 0 0 1-.636-.099.792.792 0 0 1-.383-.515.81.81 0 0 1 .094-.637.81.81 0 0 1 .52-.383zm14.531-3.632l.122-.028 4.523-1.133 2.262-.562.36-.09a.81.81 0 0 1 .636.094.81.81 0 0 1 .383.52.794.794 0 0 1-.094.636.81.81 0 0 1-.52.383l-.355.09-2.262.566-2.262.563-2.261.566-.125.031a.813.813 0 0 1-.637-.097.792.792 0 0 1-.383-.516.81.81 0 0 1 .094-.637.828.828 0 0 1 .52-.387zm14.532-3.63l1.422-.355 2.261-.562 2.262-.567 1.32-.328a.794.794 0 0 1 .637.094.81.81 0 0 1 .383.52.796.796 0 0 1-.094.636.81.81 0 0 1-.52.383l-1.316.328-4.523 1.133-1.426.355a.813.813 0 0 1-.637-.097.802.802 0 0 1-.383-.516.794.794 0 0 1 .094-.637.815.815 0 0 1 .52-.386zm14.531-3.628l.46-.114 4.524-1.132 2.262-.563.02-.004a.796.796 0 0 1 .636.094.81.81 0 0 1 .383.52.796.796 0 0 1-.094.636.81.81 0 0 1-.52.383l-.015.004-2.262.566-2.261.563-2.262.566-.465.117a.81.81 0 0 1-.637-.097.802.802 0 0 1-.382-.516.803.803 0 0 1 .093-.64.823.823 0 0 1 .52-.383zm14.531-3.63l1.762-.44 2.262-.563 2.261-.567.98-.242a.796.796 0 0 1 .638.094c.199.121.328.293.382.516a.819.819 0 0 1-.093.64.823.823 0 0 1-.52.383l-.976.242-4.524 1.133-1.766.438a.794.794 0 0 1-.636-.094.802.802 0 0 1-.383-.516.803.803 0 0 1 .094-.64.823.823 0 0 1 .52-.383zm14.531-3.628l.801-.2 4.524-1.132 1.941-.48a.796.796 0 0 1 .637.093c.199.117.328.293.383.516a.836.836 0 0 1-.614 1.023l-1.937.485-2.262.562-2.262.566-.804.2a.794.794 0 0 1-.637-.094.81.81 0 0 1-.383-.52.796.796 0 0 1 .094-.636.81.81 0 0 1 .52-.383zm14.528-3.629l2.11-.527 2.26-.563 2.263-.566.632-.16a.82.82 0 0 1 .641.097c.2.117.328.293.383.516a.838.838 0 0 1-.613 1.023l-.637.157-4.524 1.132-2.105.524a.794.794 0 0 1-.637-.094.81.81 0 0 1-.383-.52.796.796 0 0 1 .094-.636.802.802 0 0 1 .516-.383zm14.531-3.629l1.149-.285 4.523-1.133 1.594-.398a.82.82 0 0 1 .64.097c.2.118.325.29.383.516a.826.826 0 0 1-.094.637.828.828 0 0 1-.52.386l-1.597.399-2.262.562-2.261.567-1.145.285a.794.794 0 0 1-.637-.094.828.828 0 0 1-.386-.52.813.813 0 0 1 .097-.636.802.802 0 0 1 .516-.383zm14.531-3.629l.188-.047 2.262-.566 2.261-.563 2.262-.566.293-.074a.823.823 0 0 1 .64.097c.2.118.325.29.383.516a.826.826 0 0 1-.093.637.828.828 0 0 1-.52.386l-.297.07-4.523 1.134-2.262.562-.184.047a.81.81 0 0 1-.636-.094.828.828 0 0 1-.387-.52.81.81 0 0 1 .098-.636.802.802 0 0 1 .515-.383zm14.532-3.629l1.488-.37 4.523-1.134 1.254-.312a.826.826 0 0 1 .637.094.815.815 0 0 1 .387.52.81.81 0 0 1-.098.636.792.792 0 0 1-.516.383l-1.257.316-2.262.563-2.262.566-1.484.371a.826.826 0 0 1-.637-.094.815.815 0 0 1-.387-.52.81.81 0 0 1 .098-.636c.117-.2.289-.328.516-.383zm14.53-3.629l.528-.132 2.262-.567a.813.813 0 0 1 .637.098c.199.117.328.293.382.515a.794.794 0 0 1-.093.637.815.815 0 0 1-.52.387l-2.262.562-.523.133a.838.838 0 0 1-1.023-.613.81.81 0 0 1 .097-.637c.117-.2.29-.328.516-.383zm0 0" fill="#f0f"/></g><g clip-path="url(#x)"><g clip-path="url(#y)"><path d="M0 5.2c4.04.001 7.99 1.72 10 5.191M10 0C7.99 3.47 4.04 5.2 0 5.2" transform="matrix(1.63474 -.4083 .40849 1.63397 -2.124 171.32)" fill="none" stroke="#f0f"/></g></g><g clip-path="url(#z)"><g clip-path="url(#A)"><path d="M10 5.201c-4.04 0-7.99 1.719-10 5.19M0 0C2.01 3.47 5.96 5.2 10 5.2" transform="matrix(1.63474 -.4083 .40848 1.63397 318.529 91.233)" fill="none" stroke="#f0f"/></g></g><g clip-path="url(#B)"><path d="M152.203 275.46v-1.847l.004-1.847v-3.79a.824.824 0 0 1 .25-.593.782.782 0 0 1 .594-.246c.234 0 .433.082.597.246a.811.811 0 0 1 .247.594v.09l-.004 1.851v1.848l-.004 1.847v1.852c0 .23-.082.43-.246.594a.82.82 0 0 1-.598.246.805.805 0 0 1-.594-.246.814.814 0 0 1-.246-.598zm.012-14.968l.004-1.668v-1.851l.004-1.848v-2.121a.8.8 0 0 1 .25-.594.811.811 0 0 1 .593-.246c.235 0 .434.082.598.246a.814.814 0 0 1 .246.598v.27l-.004 1.85v1.849l-.004 1.847v1.668c0 .235-.082.43-.25.594a.796.796 0 0 1-.593.246.814.814 0 0 1-.598-.246.811.811 0 0 1-.246-.594zm.015-14.972l.004-1.489v-1.847l.004-1.848v-2.3a.82.82 0 0 1 .246-.599.801.801 0 0 1 .598-.242.82.82 0 0 1 .598.246.811.811 0 0 1 .246.594l-.004.453v1.848l-.004 1.851v3.336c0 .23-.086.43-.25.594a.811.811 0 0 1-.594.246.814.814 0 0 1-.597-.246.82.82 0 0 1-.247-.597zm.016-14.97v-1.308l.004-1.847v-1.848l.004-1.852v-.632c0-.231.082-.43.246-.594a.814.814 0 0 1 .598-.246c.23 0 .43.082.593.246a.814.814 0 0 1 .246.597v2.48l-.003 1.849v1.851l-.004 1.305c0 .234-.082.43-.246.594a.811.811 0 0 1-.594.246.814.814 0 0 1-.598-.246.811.811 0 0 1-.246-.594zm.016-14.972v-1.125l.004-1.848v-1.851l.004-1.848v-.812a.82.82 0 0 1 .246-.598.814.814 0 0 1 .597-.246.83.83 0 0 1 .594.25.811.811 0 0 1 .246.594v2.664l-.004 1.847v1.848l-.004 1.129c0 .23-.082.43-.246.594a.814.814 0 0 1-.597.246.811.811 0 0 1-.594-.246.82.82 0 0 1-.246-.598zm.015-14.969v-2.793l.004-1.851v-1.848l.004-.996c0-.23.082-.43.246-.594a.814.814 0 0 1 .598-.246c.23 0 .43.082.594.246a.814.814 0 0 1 .246.598v.992l-.004 1.852v1.847l-.004 1.848v.945c0 .235-.082.43-.246.594a.814.814 0 0 1-.598.246.811.811 0 0 1-.594-.246.811.811 0 0 1-.246-.594zm.016-14.972v-2.614l.004-1.847v-1.848l.004-1.176c0-.234.082-.433.246-.597a.811.811 0 0 1 .594-.246c.234 0 .433.086.597.25a.811.811 0 0 1 .246.593v1.176l-.004 1.848v1.851l-.003 1.848v.762a.814.814 0 0 1-.247.597.82.82 0 0 1-.597.246.805.805 0 0 1-.594-.246.82.82 0 0 1-.246-.597zm.012-14.969l.004-.586v-1.848l.004-1.847v-3.207c0-.23.085-.43.25-.594a.811.811 0 0 1 .593-.246c.235 0 .434.082.598.246a.814.814 0 0 1 .246.598l-.004 1.355v1.848l-.004 1.847v2.434a.8.8 0 0 1-.25.594.811.811 0 0 1-.594.246.82.82 0 0 1-.597-.246.811.811 0 0 1-.246-.594zm.015-14.973v-.402l.004-1.848v-1.847l.004-1.852v-1.535c0-.234.082-.434.25-.598a.811.811 0 0 1 .594-.246c.234 0 .43.086.598.25a.811.811 0 0 1 .246.594l-.004 1.539v1.848l-.004 1.847v2.25a.817.817 0 0 1-.25.598.811.811 0 0 1-.594.246.814.814 0 0 1-.598-.246.82.82 0 0 1-.246-.598zm.016-14.972v-.22l.004-1.847v-1.851l.004-1.848v-1.719c0-.23.082-.43.246-.593a.814.814 0 0 1 .597-.247c.231 0 .43.082.594.247a.814.814 0 0 1 .246.597v1.715l-.004 1.852v3.695l-.003.223c0 .23-.083.43-.247.593a.811.811 0 0 1-.593.246.814.814 0 0 1-.598-.246.814.814 0 0 1-.246-.597zm.016-14.97v-1.89l.003-1.847v-1.848l.004-1.848v-.05c0-.235.082-.434.246-.598a.814.814 0 0 1 .598-.246.8.8 0 0 1 .594.25.811.811 0 0 1 .246.594v1.898l-.004 1.852v1.847l-.004 1.848v.039a.814.814 0 0 1-.246.598.814.814 0 0 1-.598.246.8.8 0 0 1-.593-.25.811.811 0 0 1-.246-.594zm.015-14.972v-1.707l.004-1.847v-1.848l.004-1.852v-.23c0-.23.082-.43.246-.594a.814.814 0 0 1 .598-.246c.23 0 .43.082.594.246a.814.814 0 0 1 .246.598v2.078l-.004 1.848v1.851l-.004 1.707c0 .23-.082.43-.246.594a.814.814 0 0 1-.598.246.811.811 0 0 1-.594-.246.814.814 0 0 1-.246-.598zm.016-14.969v-3.374l.004-1.852v-1.848l.004-.41c0-.234.082-.433.246-.598a.811.811 0 0 1 .593-.246c.235 0 .434.082.598.25a.811.811 0 0 1 .246.594v.414l-.004 1.848v1.847l-.004 1.848v1.528a.814.814 0 0 1-.246.597.82.82 0 0 1-.597.246.8.8 0 0 1-.594-.25.811.811 0 0 1-.246-.594zm.012-14.972l.003-1.344v-1.851l.004-1.848v-2.442c0-.23.086-.43.25-.593a.811.811 0 0 1 .594-.246c.234 0 .434.082.598.246a.814.814 0 0 1 .246.597v.59l-.004 1.852v1.847l-.004 1.848v1.348a.8.8 0 0 1-.25.594.811.811 0 0 1-.594.246.82.82 0 0 1-.597-.246.814.814 0 0 1-.246-.598zm.015-14.969l.004-1.164v-1.852l.004-1.847v-2.621c0-.235.082-.434.25-.598a.811.811 0 0 1 .594-.246c.234 0 .43.082.597.25a.811.811 0 0 1 .246.594l-.003.773v1.848l-.004 1.851v3.012a.817.817 0 0 1-.25.598.811.811 0 0 1-.594.246.802.802 0 0 1-.598-.25.811.811 0 0 1-.246-.594zm.016-14.973v-.984l.004-1.848V46.22l.004-1.852v-.953c0-.23.082-.43.246-.594a.82.82 0 0 1 .597-.246c.23 0 .43.082.594.246a.814.814 0 0 1 .246.598v2.8l-.004 1.848v1.852l-.004.984c0 .23-.082.43-.246.594a.811.811 0 0 1-.593.246.814.814 0 0 1-.598-.246.814.814 0 0 1-.246-.598zm.015-14.968v-.805l.004-1.848V31.43l.004-1.852v-1.133c0-.234.082-.433.246-.597a.814.814 0 0 1 .598-.246.8.8 0 0 1 .594.25c.164.164.246.359.246.593v1.137l-.004 1.848v3.695l-.004.805a.814.814 0 0 1-.246.597.814.814 0 0 1-.598.246.815.815 0 0 1-.594-.25.811.811 0 0 1-.246-.593zm.016-14.973v-2.469l.004-1.851v-1.848l.004-1.316c0-.23.082-.43.246-.594a.814.814 0 0 1 .598-.246c.23 0 .43.082.593.246a.811.811 0 0 1 .246.594v1.316l-.003 1.852v1.847l-.004 1.848v.625c0 .23-.082.43-.246.594a.814.814 0 0 1-.598.246.811.811 0 0 1-.594-.246.814.814 0 0 1-.246-.598zm.016-14.969V3.695l.004-1.847V0c0-.234.082-.434.246-.598a.82.82 0 0 1 .597-.246c.235 0 .43.086.594.25a.8.8 0 0 1 .25.594l-.004 1.848v1.851l-.004 1.848v.441a.814.814 0 0 1-.246.598.82.82 0 0 1-.597.246.815.815 0 0 1-.594-.25.811.811 0 0 1-.246-.594zm0 0" fill="red"/></g><g clip-path="url(#C)"><g clip-path="url(#D)"><path d="M0 5.2c4.039 0 7.99 1.72 10 5.19M10-.002c-2.01 3.47-5.96 5.201-9.998 5.2" transform="matrix(.00169 -1.68421 1.685 .00169 144.282 275.454)" fill="none" stroke="red"/></g></g><g clip-path="url(#E)"><g clip-path="url(#F)"><path d="M10 5.2c-4.04 0-7.99 1.72-10 5.19M0-.002c2.01 3.47 5.96 5.2 10 5.201" transform="matrix(.00168 -1.68421 1.685 .00168 144.54 16.833)" fill="none" stroke="red"/></g></g><g clip-path="url(#G)"><path d="M182.836 275.46l.004-1.847v-1.847l.004-1.852v-1.937c0-.235.086-.43.25-.594a.782.782 0 0 1 .594-.246c.234 0 .433.082.597.246a.811.811 0 0 1 .246.594v.09l-.004 1.851v1.848l-.004 1.847v1.852c0 .23-.082.43-.246.594a.82.82 0 0 1-.597.246.82.82 0 0 1-.598-.246.814.814 0 0 1-.246-.598zm.016-14.968l.003-1.668v-1.851l.004-1.848v-2.121a.8.8 0 0 1 .25-.594.811.811 0 0 1 .594-.246c.234 0 .434.082.598.246a.814.814 0 0 1 .246.598v.27l-.004 1.85v1.849l-.004 1.847v1.668c0 .235-.082.43-.25.594a.796.796 0 0 1-.594.246.814.814 0 0 1-.597-.246.811.811 0 0 1-.246-.594zm.015-14.972l.004-1.489v-3.695l.004-1.848v-.453a.82.82 0 0 1 .246-.597.801.801 0 0 1 .598-.243c.234 0 .43.082.594.246a.811.811 0 0 1 .246.594v2.3l-.004 1.852v3.336a.83.83 0 0 1-.25.594.811.811 0 0 1-.594.246.814.814 0 0 1-.598-.246.82.82 0 0 1-.246-.597zm.016-14.97v-1.308l.004-1.847v-1.848l.004-1.852v-.632c0-.231.082-.43.246-.594a.814.814 0 0 1 .597-.246c.23 0 .43.082.594.246a.814.814 0 0 1 .246.597v2.48l-.004 1.849v1.851l-.004 1.305c0 .234-.082.43-.246.594a.814.814 0 0 1-.597.246.811.811 0 0 1-.594-.246.811.811 0 0 1-.246-.594zm.015-14.972v-1.125l.004-1.848v-1.851l.004-1.848v-.812a.82.82 0 0 1 .246-.598.814.814 0 0 1 .598-.246.83.83 0 0 1 .594.25.811.811 0 0 1 .246.594v.816l-.004 1.848v1.847l-.004 1.848v1.129c0 .23-.082.43-.246.594a.814.814 0 0 1-.598.246.811.811 0 0 1-.593-.246.82.82 0 0 1-.247-.598zm.016-14.969v-2.793l.004-1.851v-1.848l.004-.996c0-.23.082-.43.246-.594a.811.811 0 0 1 .594-.246c.234 0 .433.082.597.246a.814.814 0 0 1 .246.598v.992l-.003 1.852v1.847l-.004 1.848v.945c0 .235-.082.43-.246.594a.814.814 0 0 1-.598.246.811.811 0 0 1-.594-.246.811.811 0 0 1-.246-.594zm.012-14.972l.004-.762v-1.852l.004-1.847v-3.024c0-.234.086-.433.25-.597a.811.811 0 0 1 .593-.246c.235 0 .434.086.598.25a.811.811 0 0 1 .246.593l-.004 1.176v3.7l-.004 1.847v.762a.814.814 0 0 1-.246.597.82.82 0 0 1-.597.246.805.805 0 0 1-.594-.246.809.809 0 0 1-.25-.597zm.015-14.969v-.586l.004-1.848v-1.847l.004-1.848v-1.36a.8.8 0 0 1 .25-.593.811.811 0 0 1 .594-.246c.234 0 .434.082.598.246a.814.814 0 0 1 .246.598l-.004 1.355v1.848l-.004 1.847v2.434a.8.8 0 0 1-.25.594.811.811 0 0 1-.594.246.814.814 0 0 1-.597-.246.811.811 0 0 1-.247-.594zm.016-14.973v-.402l.004-1.848v-1.847l.004-1.852v-1.535c0-.234.082-.434.246-.598a.82.82 0 0 1 .598-.246c.234 0 .43.086.593.25.164.164.25.363.246.594v3.387l-.003 1.847v2.25a.833.833 0 0 1-.25.598.811.811 0 0 1-.594.246.814.814 0 0 1-.598-.246.82.82 0 0 1-.246-.598zm.016-14.972v-.22l.004-1.847v-3.699l.003-1.719c0-.23.083-.43.247-.593a.814.814 0 0 1 .597-.247c.23 0 .43.082.594.247a.814.814 0 0 1 .246.597v1.715l-.004 1.852v1.847l-.004 1.848v.223c0 .23-.082.43-.246.593a.814.814 0 0 1-.597.246.811.811 0 0 1-.594-.246.814.814 0 0 1-.246-.597zm.015-14.97v-1.89l.004-1.847v-1.848l.004-1.848v-.05c0-.235.082-.434.246-.598a.814.814 0 0 1 .598-.246.8.8 0 0 1 .594.25.811.811 0 0 1 .246.594v1.898l-.004 1.852v1.847l-.004 1.848v.039a.814.814 0 0 1-.246.598.814.814 0 0 1-.598.246.8.8 0 0 1-.594-.25.811.811 0 0 1-.246-.594zm.016-14.972v-1.707l.004-1.847v-1.848l.004-1.852v-.23c0-.23.082-.43.246-.594a.811.811 0 0 1 .594-.246c.234 0 .433.082.597.246a.814.814 0 0 1 .246.598v.23l-.004 1.848v1.848l-.004 1.851v1.707c0 .23-.082.43-.246.594a.814.814 0 0 1-.597.246.811.811 0 0 1-.594-.246.814.814 0 0 1-.246-.598zm.016-14.969v-3.374l.003-1.852v-2.258c0-.234.086-.433.25-.598a.811.811 0 0 1 .594-.246c.235 0 .434.082.598.25a.811.811 0 0 1 .246.594v.414l-.004 1.848v1.847l-.004 1.848v1.528a.814.814 0 0 1-.246.597.82.82 0 0 1-.598.246.794.794 0 0 1-.593-.25.782.782 0 0 1-.246-.594zm.011-14.972l.004-1.344v-1.851l.004-1.848v-2.442a.8.8 0 0 1 .25-.593.811.811 0 0 1 .594-.246c.234 0 .433.082.597.246a.814.814 0 0 1 .247.597l-.004.59v3.7l-.004 1.847v1.348a.8.8 0 0 1-.25.594.811.811 0 0 1-.594.246.814.814 0 0 1-.598-.246.814.814 0 0 1-.246-.598zm.016-14.969v-1.164l.004-1.852v-1.847l.004-1.848v-.773c0-.235.082-.434.246-.598a.82.82 0 0 1 .597-.246c.235 0 .43.082.594.25.168.164.25.363.246.594v2.62l-.004 1.852v3.012a.833.833 0 0 1-.25.598.811.811 0 0 1-.593.246.802.802 0 0 1-.598-.25.811.811 0 0 1-.246-.594zm.016-14.973v-.984l.003-1.848V46.22l.004-1.852v-.953c0-.23.082-.43.246-.594a.814.814 0 0 1 .598-.246c.23 0 .43.082.594.246a.814.814 0 0 1 .246.598v2.8l-.004 1.848v1.852l-.004.984c0 .23-.082.43-.246.594a.814.814 0 0 1-.598.246.811.811 0 0 1-.593-.246.814.814 0 0 1-.246-.598zm.015-14.968v-.805l.004-1.848v-3.699l.004-1.133c0-.234.082-.433.246-.597a.814.814 0 0 1 .598-.246.8.8 0 0 1 .593.25c.165.164.247.359.247.593v1.137l-.004 1.848v1.847l-.004 1.848v.805a.814.814 0 0 1-.246.597.814.814 0 0 1-.598.246.815.815 0 0 1-.594-.25.811.811 0 0 1-.246-.593zm.016-14.973v-2.469l.004-1.851v-1.848l.004-1.316c0-.23.082-.43.246-.594a.814.814 0 0 1 .597-.246c.23 0 .43.082.594.246a.811.811 0 0 1 .246.594v1.316l-.004 1.852v1.847l-.004 1.848v.625c0 .23-.082.43-.246.594a.814.814 0 0 1-.597.246.811.811 0 0 1-.594-.246.814.814 0 0 1-.246-.598zm.015-14.969V3.695l.004-1.847V0c0-.234.082-.434.246-.598a.82.82 0 0 1 .598-.246c.234 0 .43.086.594.25a.811.811 0 0 1 .246.594v1.848l-.004 1.851v2.29a.814.814 0 0 1-.246.597.82.82 0 0 1-.598.246.809.809 0 0 1-.594-.25.782.782 0 0 1-.246-.594zm0 0" fill="red"/></g><g clip-path="url(#H)"><g clip-path="url(#I)"><path d="M0 5.2c4.039 0 7.99 1.721 10 5.19M10 0C7.989 3.47 4.039 5.2.001 5.2" transform="matrix(.00168 -1.68421 1.685 .00168 174.918 275.454)" fill="none" stroke="red"/></g></g><g clip-path="url(#J)"><g clip-path="url(#K)"><path d="M10 5.2c-4.04 0-7.99 1.72-10 5.19M0 0c2.01 3.47 5.96 5.2 10 5.2" transform="matrix(.00169 -1.68421 1.685 .00169 175.177 16.833)" fill="none" stroke="red"/></g></g><path d="M102.271 143.112l40.91 59.287" transform="scale(.74889 .74854)" fill="none" stroke-width="1.125" stroke="#000"/><use xlink:href="#L" x="316.031" y="129.558"/><use xlink:href="#M" x="226.398" y="153.522"/><use xlink:href="#N" x="287.667" y="153.522"/><use xlink:href="#O" x="39.96" y="153.522"/><use xlink:href="#N" x="45.202" y="153.522"/><use xlink:href="#P" x="176.925" y="11.982"/><path d="M210.812 62.156V29.207c0-.25.047-.488.141-.719.098-.226.23-.43.406-.605a1.88 1.88 0 0 1 1.324-.547h95.11a1.856 1.856 0 0 1 1.324.547 1.856 1.856 0 0 1 .547 1.324v32.95c0 .25-.047.488-.14.718-.094.23-.231.43-.407.605a1.856 1.856 0 0 1-.605.407c-.23.097-.469.144-.719.144h-95.11c-.245 0-.484-.047-.714-.144a1.876 1.876 0 0 1-1.016-1.012 1.885 1.885 0 0 1-.14-.719zm0 0" fill="#9696ff" stroke="#00f" stroke-width=".74889"/><use xlink:href="#Q" x="214.042" y="50.176"/><use xlink:href="#R" x="222.233" y="50.176"/><use xlink:href="#L" x="228.224" y="50.176"/><use xlink:href="#S" x="235.713" y="50.176"/><use xlink:href="#T" x="244.699" y="50.176"/><use xlink:href="#N" x="261.292" y="59.911"/><use xlink:href="#L" x="268.032" y="59.911"/><use xlink:href="#U" x="283.759" y="59.911"/><use xlink:href="#V" x="297.239" y="59.911"/><use xlink:href="#W" x="275.521" y="56.167"/><path d="M260.613 46.43h44.184v.75h-44.184zm0 0"/><use xlink:href="#L" x="260.543" y="41.189"/><use xlink:href="#X" x="276.27" y="41.189"/><use xlink:href="#M" x="290.499" y="41.189"/><use xlink:href="#L" x="297.239" y="41.189"/><use xlink:href="#Y" x="268.032" y="36.696"/><path d="M16.852 132.555V81.629a1.851 1.851 0 0 1 .546-1.324 1.92 1.92 0 0 1 .606-.407c.23-.093.469-.14.719-.14H134.8a1.88 1.88 0 0 1 1.324.547c.176.175.309.379.406.61.094.226.14.464.14.714v50.926a1.88 1.88 0 0 1-.546 1.324 1.821 1.821 0 0 1-.61.402c-.23.098-.468.145-.714.145H18.723c-.25 0-.489-.047-.72-.145a1.845 1.845 0 0 1-1.01-1.011 1.88 1.88 0 0 1-.141-.715zm0 0" fill="#ff96a8" stroke="#f0f" stroke-width=".74889"/><use xlink:href="#Z" x="19.74" y="94.36"/><use xlink:href="#aa" x="28.727" y="94.36"/><use xlink:href="#ab" x="36.216" y="94.36"/><use xlink:href="#ac" x="39.211" y="94.36"/><use xlink:href="#ad" x="42.207" y="94.36"/><use xlink:href="#ae" x="49.696" y="94.36"/><use xlink:href="#af" x="57.185" y="94.36"/><use xlink:href="#ag" x="64.674" y="94.36"/><use xlink:href="#ah" x="67.669" y="94.36"/><use xlink:href="#ai" x="76.656" y="94.36"/><use xlink:href="#aj" x="83.396" y="94.36"/><use xlink:href="#ak" x="90.136" y="94.36"/><use xlink:href="#al" x="102.118" y="94.36"/><use xlink:href="#am" x="109.607" y="94.36"/><use xlink:href="#an" x="114.1" y="94.36"/><use xlink:href="#am" x="121.589" y="94.36"/><use xlink:href="#af" x="126.082" y="94.36"/><use xlink:href="#P" x="58.694" y="118.324"/><use xlink:href="#T" x="69.658" y="118.324"/><use xlink:href="#N" x="85.876" y="127.311"/><path d="M85.375 114.578h7.488v.75h-7.488zm0 0"/><use xlink:href="#L" x="85.502" y="109.338"/></svg>