<?xml version="1.0" encoding="UTF-8" standalone="no"?>
<!-- Copyright 2017 mathsisfun.com -->
<svg xmlns="http://www.w3.org/2000/svg" width="595.8" height="184.9" version="1.1">
<defs>
</defs>
<path d="M 385.2,123.6 593.3,16.6" style="color:black; overflow:visible; fill:none; stroke:#f44800; stroke-width:2.07; stroke-dasharray:4.1, 2.1;"/>
<path d="m 402.8,162.3 c 0.2,-2.2 20.6,-51.5 74.6,-82 53.1,-30.1 117.9,-62.9 117.9,-62.9" style="color:black; overflow:visible; fill:none; stroke:#0000ff; stroke-width:2.05;"/>
<path d="M 0,57.6 234.1,57.1" style="color:black; overflow:visible; fill:none; stroke:#f44800; stroke-width:2.07; stroke-dasharray:4.1, 2.1;"/>
<path d="m 302.4,1.3 0.5,183.6" style="color:black; overflow:visible; fill:none; stroke:#f44800; stroke-width:2.07; stroke-dasharray:4.1, 2.1;"/>
<text x="99.6" y="26" style="font-family:'Comic Sans MS'; text-align:center; text-anchor:middle; font-size:18.8px; color:black; overflow:visible; fill:#f44800; stroke-width:1px;">Horizontal</text>
<text x="308.5" y="26" style="font-family:'Comic Sans MS'; font-size:18.8px; color:black; overflow:visible; fill:#f44800; stroke-width:1px;">Vertical</text>
<text x="438.1" y="254.5" transform="rotate(-26.7705)" style="font-family:'Comic Sans MS'; text-align:center; text-anchor:middle; font-size:18.8px; font-style:italic; color:black; overflow:visible; fill:#f44800; stroke-width:1px;">Oblique</text>
<path d="m 3.5,129.6 c 1,-1.6 48,-58 104.8,-64.4 29.4,-4.5 83.4,-5 125.9,-5.4" style="color:black; overflow:visible; fill:none; stroke:#0000ff; stroke-width:1.75;"/>
<path d="m 228.1,178.8 c 1.6,-0.8 58.1,-37.2 64.5,-81.2 4.5,-22.8 5,-64.6 5.4,-97.6" style="color:black; overflow:visible; fill:none; stroke:#0000ff; stroke-width:1.54;"/>
<text x="99.6" y="46" style="font-family:'Comic Sans MS'; text-align:center; text-anchor:middle; font-size:18.8px; color:black; overflow:visible; fill:#f44800; stroke-width:1px;">Asymptote</text>
<text x="308.5" y="46" style="font-family:'Comic Sans MS'; font-size:18.8px; color:black; overflow:visible; fill:#f44800; stroke-width:1px;">Asymptote</text>
<text x="436.3" y="273.1" transform="rotate(-26.7705)" style="font-family:'Comic Sans MS'; text-align:center; text-anchor:middle; font-size:18.8px; font-style:italic; color:black; overflow:visible; fill:#f44800; stroke-width:1px;">Asymptote</text>
</svg>
