<svg fill="none" height="753" viewBox="0 0 1199 753" width="1199" xmlns="http://www.w3.org/2000/svg"><rect fill="#e2f1ff" height="753" rx="20" width="1199"/><rect fill="#95d1f9" height="291" rx="145.5" width="291" x="37" y="100"/><path d="M69 228C69 165.592 120.092 115 182.5 115 244.908 115 296 165.592 296 228 296 290.408 244.908 341 182.5 341 120.092 341 69 290.408 69 228Z" fill="#ffffff"/><path d="M186.327 360.449C184.329 362.825 180.671 362.825 178.673 360.449L160.399 338.718C157.664 335.466 159.976 330.5 164.226 330.5H200.774C205.024 330.5 207.336 335.466 204.601 338.718L186.327 360.449Z" fill="#ffffff"/><path d="M114.245 248V208H120.28V225.383H140.221V208H146.276V248H140.221V230.559H120.28V248H114.245ZM166.426 248.605C163.47 248.605 160.925 247.974 158.789 246.711 156.667 245.435 155.026 243.645 153.867 241.34 152.721 239.022 152.149 236.307 152.149 233.195 152.149 230.122 152.721 227.414 153.867 225.07 155.026 222.727 156.641 220.897 158.711 219.582 160.794 218.267 163.229 217.609 166.016 217.609 167.708 217.609 169.349 217.889 170.938 218.449 172.526 219.009 173.952 219.888 175.215 221.086 176.478 222.284 177.474 223.84 178.203 225.754 178.932 227.655 179.297 229.966 179.297 232.687V234.758H155.449V230.383H173.574C173.574 228.846 173.262 227.486 172.637 226.301 172.012 225.103 171.133 224.159 170 223.469 168.88 222.779 167.565 222.434 166.055 222.434 164.414 222.434 162.982 222.837 161.758 223.645 160.547 224.439 159.609 225.48 158.945 226.77 158.294 228.046 157.969 229.432 157.969 230.93V234.348C157.969 236.353 158.32 238.059 159.024 239.465 159.74 240.871 160.736 241.945 162.012 242.687 163.288 243.417 164.779 243.781 166.484 243.781 167.591 243.781 168.6 243.625 169.512 243.312 170.423 242.987 171.211 242.505 171.875 241.867 172.539 241.229 173.047 240.441 173.399 239.504L178.926 240.5C178.483 242.128 177.689 243.553 176.543 244.777 175.41 245.988 173.984 246.932 172.266 247.609 170.56 248.273 168.613 248.605 166.426 248.605ZM190.516 208V248H184.676V208H190.516ZM203.113 208V248H197.273V208H203.113ZM222.506 248.605C219.693 248.605 217.239 247.961 215.142 246.672 213.046 245.383 211.419 243.579 210.26 241.262 209.101 238.944 208.521 236.236 208.521 233.137 208.521 230.025 209.101 227.303 210.26 224.973 211.419 222.642 213.046 220.832 215.142 219.543 217.239 218.254 219.693 217.609 222.506 217.609 225.318 217.609 227.773 218.254 229.869 219.543 231.965 220.832 233.593 222.642 234.752 224.973 235.911 227.303 236.49 230.025 236.49 233.137 236.49 236.236 235.911 238.944 234.752 241.262 233.593 243.579 231.965 245.383 229.869 246.672 227.773 247.961 225.318 248.605 222.506 248.605ZM222.525 243.703C224.348 243.703 225.859 243.221 227.057 242.258 228.254 241.294 229.14 240.012 229.713 238.41 230.299 236.809 230.592 235.044 230.592 233.117 230.592 231.203 230.299 229.445 229.713 227.844 229.14 226.229 228.254 224.934 227.057 223.957 225.859 222.98 224.348 222.492 222.525 222.492 220.689 222.492 219.166 222.98 217.955 223.957 216.757 224.934 215.865 226.229 215.279 227.844 214.706 229.445 214.42 231.203 214.42 233.117 214.42 235.044 214.706 236.809 215.279 238.41 215.865 240.012 216.757 241.294 217.955 242.258 219.166 243.221 220.689 243.703 222.525 243.703ZM249.272 208 248.764 236.496H243.354L242.846 208H249.272ZM246.069 248.371C244.988 248.371 244.064 247.993 243.295 247.238 242.527 246.47 242.15 245.546 242.163 244.465 242.15 243.397 242.527 242.486 243.295 241.73 244.064 240.962 244.988 240.578 246.069 240.578 247.124 240.578 248.035 240.962 248.803 241.73 249.571 242.486 249.962 243.397 249.975 244.465 249.962 245.181 249.773 245.839 249.409 246.437 249.057 247.023 248.588 247.492 248.002 247.844 247.417 248.195 246.772 248.371 246.069 248.371Z" fill="#000000"/><path d="M436.25 245.5C436.25 246.737 435.238 247.75 434 247.75H409.25V272.5C409.25 273.744 408.244 274.751 407 274.751 405.756 274.751 404.75 273.737 404.75 272.5V247.75H380C378.756 247.75 377.75 246.744 377.75 245.501 377.75 244.262 378.757 243.25 380 243.25H404.75V218.5C404.75 217.256 405.756 216.251 407 216.251 408.244 216.251 409.25 217.257 409.25 218.5V243.25H434C435.238 243.25 436.25 244.262 436.25 245.5Z" fill="#000000"/><path d="M486 234.884C486 172.476 537.092 121.884 599.5 121.884 661.908 121.884 713 172.476 713 234.884 713 297.293 661.908 347.884 599.5 347.884 537.092 347.884 486 297.293 486 234.884Z" fill="#ffffff"/><path d="M603.327 367.334C601.329 369.71 597.671 369.71 595.673 367.334L577.399 345.602C574.664 342.35 576.976 337.384 581.226 337.384H617.774C622.024 337.384 624.336 342.35 621.601 345.602L603.327 367.334Z" fill="#ffffff"/><path d="M650.05 207.934H629.421L634.551 185.701C635.025 183.629 633.739 181.562 631.664 181.083 629.573 180.594 627.527 181.899 627.046 183.754L621.517 207.718H590.928L596.058 185.484C596.532 183.412 595.246 181.345 593.171 180.866 591.073 180.378 589.035 181.682 588.553 183.537L583.012 207.934H557.65C555.522 207.934 553.8 209.653 553.8 211.782 553.8 213.902 555.523 215.634 557.65 215.634H581.241L572.352 254.134H549.95C547.822 254.134 546.1 255.855 546.1 257.982 546.1 260.109 547.822 261.832 549.95 261.832H570.579L565.449 284.068C564.975 286.14 566.261 288.207 568.336 288.686 568.63 288.76 568.914 288.784 569.2 288.784 570.952 288.784 572.54 287.798 572.951 285.798L578.481 261.834H609.088L603.958 284.068C603.484 286.14 604.77 288.207 606.846 288.686 607.122 288.76 607.411 288.784 607.7 288.784 609.452 288.784 611.04 287.798 611.451 285.798L616.981 261.834H642.35C644.478 261.834 646.2 260.111 646.2 257.984 646.2 255.857 644.478 254.137 642.35 254.137H618.759L627.643 215.853H650.05C652.178 215.853 653.9 214.128 653.9 212.001 653.9 209.667 652.167 207.934 650.05 207.934ZM610.852 254.134H580.052L589.148 215.634H619.755L610.852 254.134Z" fill="#000000"/><path d="M762.75 234.25H821.25C822.488 234.25 823.5 233.237 823.5 232 823.5 230.762 822.494 229.75 821.25 229.75H762.75C761.506 229.75 760.5 230.762 760.5 232 760.5 233.237 761.506 234.25 762.75 234.25ZM821.25 256.75H762.75C761.506 256.75 760.5 257.762 760.5 259 760.5 260.237 761.506 261.25 762.75 261.25H821.25C822.494 261.25 823.5 260.244 823.5 259 823.5 257.756 822.488 256.75 821.25 256.75Z" fill="#000000"/><rect fill="#95d1f9" height="291" rx="145.5" width="291" x="871" y="100"/><path d="M903 228C903 165.592 954.092 115 1016.5 115 1078.91 115 1130 165.592 1130 228 1130 290.408 1078.91 341 1016.5 341 954.092 341 903 290.408 903 228Z" fill="#ffffff"/><path d="M1020.33 360.449C1018.33 362.825 1014.67 362.825 1012.67 360.449L994.399 338.718C991.664 335.466 993.976 330.5 998.226 330.5H1034.77C1039.02 330.5 1041.34 335.466 1038.6 338.718L1020.33 360.449Z" fill="#ffffff"/><g fill="#000000"><path d="M950.798 186V183.614L958.181 175.964C958.969 175.134 959.619 174.406 960.131 173.781 960.649 173.148 961.036 172.548 961.292 171.98 961.548 171.412 961.675 170.808 961.675 170.169 961.675 169.445 961.505 168.82 961.164 168.294 960.823 167.761 960.358 167.353 959.769 167.069 959.179 166.778 958.515 166.632 957.776 166.632 956.995 166.632 956.313 166.792 955.731 167.112 955.148 167.431 954.701 167.882 954.389 168.464 954.076 169.047 953.92 169.729 953.92 170.51H950.777C950.777 169.182 951.082 168.021 951.693 167.026 952.304 166.032 953.142 165.261 954.207 164.714 955.273 164.161 956.484 163.884 957.84 163.884 959.211 163.884 960.418 164.157 961.462 164.704 962.514 165.244 963.334 165.982 963.923 166.92 964.513 167.85 964.808 168.901 964.808 170.073 964.808 170.883 964.655 171.675 964.349 172.449 964.051 173.223 963.529 174.086 962.783 175.038 962.038 175.982 961.001 177.129 959.673 178.479L955.337 183.017V183.177H965.159V186H950.798ZM974.765 186.32C973.444 186.32 972.265 185.982 971.228 185.308 970.198 184.626 969.389 183.656 968.799 182.399 968.217 181.135 967.926 179.619 967.926 177.85 967.926 176.082 968.22 174.569 968.81 173.312 969.406 172.055 970.223 171.092 971.26 170.425 972.297 169.757 973.472 169.423 974.786 169.423 975.802 169.423 976.619 169.594 977.237 169.935 977.862 170.268 978.345 170.659 978.686 171.107 979.034 171.554 979.303 171.948 979.495 172.289H979.687V164.182H982.872V186H979.762V183.454H979.495C979.303 183.802 979.026 184.2 978.664 184.647 978.309 185.094 977.819 185.485 977.194 185.819 976.569 186.153 975.759 186.32 974.765 186.32ZM975.468 183.603C976.384 183.603 977.159 183.362 977.791 182.879 978.43 182.388 978.913 181.71 979.24 180.844 979.573 179.977 979.74 178.969 979.74 177.818 979.74 176.682 979.577 175.687 979.25 174.835 978.923 173.983 978.444 173.319 977.812 172.843 977.18 172.367 976.399 172.129 975.468 172.129 974.509 172.129 973.71 172.378 973.071 172.875 972.432 173.372 971.949 174.05 971.622 174.91 971.303 175.769 971.143 176.739 971.143 177.818 971.143 178.912 971.306 179.896 971.633 180.769 971.96 181.643 972.443 182.335 973.082 182.847 973.728 183.351 974.524 183.603 975.468 183.603ZM994.148 186.298C992.621 186.298 991.272 186.036 990.1 185.51 988.935 184.984 988.023 184.26 987.362 183.337 986.701 182.413 986.375 181.362 986.382 180.183 986.375 179.26 986.563 178.411 986.947 177.637 987.337 176.856 987.866 176.206 988.534 175.688 989.201 175.162 989.947 174.828 990.771 174.686V174.558C989.684 174.295 988.814 173.713 988.161 172.811 987.508 171.909 987.184 170.872 987.192 169.7 987.184 168.585 987.479 167.591 988.076 166.717 988.679 165.837 989.507 165.144 990.558 164.64 991.609 164.136 992.806 163.884 994.148 163.884 995.476 163.884 996.662 164.139 997.706 164.651 998.758 165.155 999.585 165.847 1000.19 166.728 1000.79 167.602 1001.1 168.592 1001.1 169.7 1001.1 170.872 1000.76 171.909 1000.1 172.811 999.443 173.713 998.584 174.295 997.525 174.558V174.686C998.342 174.828 999.077 175.162 999.731 175.688 1000.39 176.206 1000.92 176.856 1001.31 177.637 1001.71 178.411 1001.91 179.26 1001.91 180.183 1001.91 181.362 1001.57 182.413 1000.91 183.337 1000.25 184.26 999.336 184.984 998.165 185.51 997 186.036 995.661 186.298 994.148 186.298ZM994.148 183.603C995.05 183.603 995.831 183.454 996.492 183.156 997.152 182.85 997.664 182.428 998.026 181.888 998.388 181.341 998.573 180.702 998.58 179.97 998.573 179.21 998.374 178.539 997.983 177.957 997.6 177.374 997.078 176.916 996.417 176.582 995.757 176.249 995 176.082 994.148 176.082 993.289 176.082 992.525 176.249 991.858 176.582 991.19 176.916 990.665 177.374 990.281 177.957 989.898 178.539 989.709 179.21 989.716 179.97 989.709 180.702 989.883 181.341 990.238 181.888 990.601 182.428 991.116 182.85 991.783 183.156 992.451 183.454 993.239 183.603 994.148 183.603ZM994.148 173.45C994.873 173.45 995.515 173.305 996.076 173.013 996.638 172.722 997.078 172.317 997.398 171.799 997.724 171.281 997.891 170.673 997.898 169.977 997.891 169.295 997.728 168.699 997.408 168.188 997.096 167.676 996.659 167.282 996.098 167.005 995.537 166.721 994.887 166.579 994.148 166.579 993.395 166.579 992.735 166.721 992.167 167.005 991.606 167.282 991.169 167.676 990.856 168.188 990.544 168.699 990.391 169.295 990.398 169.977 990.391 170.673 990.547 171.281 990.867 171.799 991.187 172.317 991.627 172.722 992.188 173.013 992.756 173.305 993.41 173.45 994.148 173.45ZM1012.33 186.298C1011 186.298 1009.8 186.043 1008.73 185.531 1007.67 185.013 1006.83 184.303 1006.2 183.401 1005.56 182.499 1005.23 181.469 1005.18 180.311H1008.38C1008.46 181.249 1008.87 182.019 1009.63 182.623 1010.38 183.227 1011.28 183.528 1012.33 183.528 1013.17 183.528 1013.91 183.337 1014.56 182.953 1015.21 182.562 1015.72 182.026 1016.09 181.344 1016.47 180.663 1016.66 179.885 1016.66 179.011 1016.66 178.124 1016.47 177.332 1016.08 176.636 1015.7 175.94 1015.17 175.393 1014.5 174.995 1013.83 174.597 1013.06 174.395 1012.19 174.388 1011.53 174.388 1010.87 174.501 1010.2 174.729 1009.53 174.956 1008.99 175.254 1008.58 175.624L1005.57 175.176 1006.79 164.182H1018.79V167.005H1009.53L1008.84 173.109H1008.97C1009.39 172.697 1009.96 172.353 1010.66 172.076 1011.37 171.799 1012.13 171.661 1012.94 171.661 1014.27 171.661 1015.45 171.977 1016.49 172.609 1017.53 173.241 1018.35 174.104 1018.95 175.197 1019.55 176.284 1019.85 177.534 1019.84 178.947 1019.85 180.361 1019.53 181.621 1018.88 182.729 1018.25 183.837 1017.36 184.711 1016.22 185.35 1015.09 185.982 1013.8 186.298 1012.33 186.298ZM1030.34 186.298C1029 186.298 1027.8 186.043 1026.74 185.531 1025.68 185.013 1024.83 184.303 1024.2 183.401 1023.57 182.499 1023.23 181.469 1023.19 180.311H1026.38C1026.46 181.249 1026.88 182.019 1027.63 182.623 1028.38 183.227 1029.29 183.528 1030.34 183.528 1031.17 183.528 1031.92 183.337 1032.56 182.953 1033.22 182.562 1033.73 182.026 1034.1 181.344 1034.47 180.663 1034.66 179.885 1034.66 179.011 1034.66 178.124 1034.47 177.332 1034.09 176.636 1033.7 175.94 1033.17 175.393 1032.5 174.995 1031.83 174.597 1031.06 174.395 1030.2 174.388 1029.54 174.388 1028.87 174.501 1028.21 174.729 1027.54 174.956 1027 175.254 1026.59 175.624L1023.57 175.176 1024.8 164.182H1036.79V167.005H1027.53L1026.84 173.109H1026.97C1027.4 172.697 1027.96 172.353 1028.66 172.076 1029.37 171.799 1030.13 171.661 1030.94 171.661 1032.27 171.661 1033.45 171.977 1034.49 172.609 1035.54 173.241 1036.36 174.104 1036.95 175.197 1037.56 176.284 1037.85 177.534 1037.85 178.947 1037.85 180.361 1037.53 181.621 1036.89 182.729 1036.25 183.837 1035.36 184.711 1034.22 185.35 1033.1 185.982 1031.8 186.298 1030.34 186.298ZM1047.31 186.32C1045.99 186.32 1044.81 185.982 1043.77 185.308 1042.74 184.626 1041.93 183.656 1041.34 182.399 1040.76 181.135 1040.47 179.619 1040.47 177.85 1040.47 176.082 1040.76 174.569 1041.35 173.312 1041.95 172.055 1042.76 171.092 1043.8 170.425 1044.84 169.757 1046.01 169.423 1047.33 169.423 1048.34 169.423 1049.16 169.594 1049.78 169.935 1050.4 170.268 1050.89 170.659 1051.23 171.107 1051.57 171.554 1051.84 171.948 1052.04 172.289H1052.23V164.182H1055.41V186H1052.3V183.454H1052.04C1051.84 183.802 1051.57 184.2 1051.21 184.647 1050.85 185.094 1050.36 185.485 1049.74 185.819 1049.11 186.153 1048.3 186.32 1047.31 186.32ZM1048.01 183.603C1048.93 183.603 1049.7 183.362 1050.33 182.879 1050.97 182.388 1051.45 181.71 1051.78 180.844 1052.11 179.977 1052.28 178.969 1052.28 177.818 1052.28 176.682 1052.12 175.687 1051.79 174.835 1051.46 173.983 1050.99 173.319 1050.35 172.843 1049.72 172.367 1048.94 172.129 1048.01 172.129 1047.05 172.129 1046.25 172.378 1045.61 172.875 1044.97 173.372 1044.49 174.05 1044.16 174.91 1043.84 175.769 1043.68 176.739 1043.68 177.818 1043.68 178.912 1043.85 179.896 1044.17 180.769 1044.5 181.643 1044.98 182.335 1045.62 182.847 1046.27 183.351 1047.07 183.603 1048.01 183.603ZM1066.41 186.33C1064.8 186.33 1063.41 185.986 1062.25 185.297 1061.09 184.601 1060.19 183.624 1059.56 182.367 1058.94 181.103 1058.62 179.622 1058.62 177.925 1058.62 176.249 1058.94 174.771 1059.56 173.493 1060.19 172.214 1061.08 171.217 1062.2 170.499 1063.34 169.782 1064.67 169.423 1066.19 169.423 1067.11 169.423 1068.01 169.576 1068.87 169.881 1069.74 170.187 1070.52 170.666 1071.21 171.32 1071.9 171.973 1072.44 172.822 1072.84 173.866 1073.23 174.903 1073.43 176.163 1073.43 177.648V178.777H1060.43V176.391H1070.31C1070.31 175.553 1070.14 174.81 1069.8 174.164 1069.46 173.511 1068.98 172.996 1068.36 172.619 1067.75 172.243 1067.03 172.055 1066.21 172.055 1065.32 172.055 1064.53 172.275 1063.87 172.715 1063.21 173.148 1062.69 173.717 1062.33 174.42 1061.98 175.116 1061.8 175.872 1061.8 176.689V178.553C1061.8 179.647 1061.99 180.577 1062.38 181.344 1062.77 182.112 1063.31 182.697 1064 183.102 1064.7 183.5 1065.51 183.699 1066.44 183.699 1067.05 183.699 1067.6 183.614 1068.1 183.443 1068.59 183.266 1069.02 183.003 1069.38 182.655 1069.75 182.307 1070.02 181.877 1070.22 181.366L1073.23 181.909C1072.99 182.797 1072.56 183.575 1071.93 184.242 1071.31 184.903 1070.54 185.418 1069.6 185.787 1068.67 186.149 1067.61 186.33 1066.41 186.33ZM1084.16 169.636V172.193H1074.91V169.636H1084.16ZM1077.44 186V167.74C1077.44 166.717 1077.67 165.869 1078.11 165.194 1078.56 164.512 1079.16 164.004 1079.89 163.67 1080.63 163.33 1081.43 163.159 1082.3 163.159 1082.94 163.159 1083.49 163.212 1083.94 163.319 1084.4 163.418 1084.73 163.511 1084.95 163.596L1084.21 166.174C1084.06 166.131 1083.87 166.082 1083.63 166.025 1083.4 165.961 1083.11 165.929 1082.78 165.929 1082.01 165.929 1081.45 166.121 1081.12 166.504 1080.79 166.888 1080.63 167.442 1080.63 168.166V186H1077.44ZM950.784 222.362C949.101 222.355 947.663 221.911 946.469 221.031 945.276 220.15 944.364 218.868 943.732 217.185 943.099 215.501 942.783 213.474 942.783 211.102 942.783 208.737 943.099 206.716 943.732 205.04 944.371 203.364 945.287 202.085 946.48 201.205 947.68 200.324 949.115 199.884 950.784 199.884 952.453 199.884 953.884 200.327 955.077 201.215 956.271 202.096 957.183 203.374 957.815 205.05 958.455 206.719 958.774 208.737 958.774 211.102 958.774 213.481 958.458 215.512 957.826 217.195 957.194 218.871 956.281 220.153 955.088 221.041 953.895 221.922 952.46 222.362 950.784 222.362ZM950.784 219.518C952.261 219.518 953.415 218.797 954.246 217.355 955.084 215.913 955.504 213.829 955.504 211.102 955.504 209.29 955.312 207.76 954.928 206.51 954.552 205.253 954.008 204.301 953.298 203.655 952.595 203.001 951.757 202.675 950.784 202.675 949.314 202.675 948.16 203.399 947.322 204.848 946.484 206.297 946.061 208.381 946.054 211.102 946.054 212.92 946.242 214.457 946.619 215.714 947.002 216.964 947.545 217.913 948.249 218.559 948.952 219.198 949.797 219.518 950.784 219.518ZM969.571 222.298C968.598 222.284 967.639 222.107 966.694 221.766 965.757 221.425 964.904 220.857 964.137 220.061 963.37 219.266 962.756 218.197 962.294 216.854 961.84 215.512 961.613 213.836 961.613 211.826 961.613 209.923 961.801 208.232 962.177 206.755 962.561 205.278 963.111 204.031 963.828 203.016 964.546 201.993 965.412 201.215 966.428 200.683 967.443 200.15 968.583 199.884 969.848 199.884 971.147 199.884 972.301 200.139 973.31 200.651 974.318 201.162 975.135 201.869 975.76 202.771 976.392 203.673 976.794 204.699 976.964 205.849H973.715C973.495 204.94 973.058 204.198 972.404 203.623 971.751 203.048 970.899 202.76 969.848 202.76 968.25 202.76 967.003 203.456 966.108 204.848 965.22 206.24 964.773 208.175 964.766 210.654H964.926C965.302 210.036 965.764 209.511 966.311 209.077 966.865 208.637 967.483 208.3 968.164 208.065 968.853 207.824 969.578 207.703 970.338 207.703 971.602 207.703 972.745 208.012 973.768 208.63 974.798 209.241 975.618 210.086 976.229 211.165 976.84 212.245 977.145 213.481 977.145 214.873 977.145 216.265 976.829 217.526 976.197 218.655 975.572 219.784 974.691 220.679 973.555 221.339 972.419 221.993 971.09 222.312 969.571 222.298ZM969.56 219.528C970.398 219.528 971.147 219.322 971.808 218.911 972.468 218.499 972.99 217.945 973.374 217.249 973.757 216.553 973.949 215.775 973.949 214.915 973.949 214.077 973.761 213.314 973.385 212.625 973.015 211.936 972.504 211.389 971.85 210.984 971.204 210.58 970.465 210.377 969.635 210.377 969.002 210.377 968.416 210.498 967.877 210.739 967.344 210.981 966.875 211.315 966.47 211.741 966.066 212.167 965.746 212.657 965.512 213.211 965.284 213.758 965.171 214.337 965.171 214.947 965.171 215.764 965.359 216.521 965.735 217.217 966.119 217.913 966.641 218.474 967.301 218.9 967.969 219.319 968.722 219.528 969.56 219.528ZM988.022 222.362C986.338 222.355 984.9 221.911 983.707 221.031 982.514 220.15 981.601 218.868 980.969 217.185 980.337 215.501 980.021 213.474 980.021 211.102 980.021 208.737 980.337 206.716 980.969 205.04 981.608 203.364 982.524 202.085 983.718 201.205 984.918 200.324 986.353 199.884 988.022 199.884 989.691 199.884 991.122 200.327 992.315 201.215 993.508 202.096 994.421 203.374 995.053 205.05 995.692 206.719 996.012 208.737 996.012 211.102 996.012 213.481 995.696 215.512 995.063 217.195 994.431 218.871 993.519 220.153 992.326 221.041 991.132 221.922 989.698 222.362 988.022 222.362ZM988.022 219.518C989.499 219.518 990.653 218.797 991.484 217.355 992.322 215.913 992.741 213.829 992.741 211.102 992.741 209.29 992.549 207.76 992.166 206.51 991.789 205.253 991.246 204.301 990.536 203.655 989.833 203.001 988.995 202.675 988.022 202.675 986.551 202.675 985.397 203.399 984.559 204.848 983.721 206.297 983.299 208.381 983.291 211.102 983.291 212.92 983.48 214.457 983.856 215.714 984.24 216.964 984.783 217.913 985.486 218.559 986.189 219.198 987.034 219.518 988.022 219.518ZM1006.29 222.33C1004.67 222.33 1003.29 221.986 1002.12 221.297 1000.96 220.601 1000.07 219.624 999.436 218.367 998.811 217.103 998.498 215.622 998.498 213.925 998.498 212.249 998.811 210.771 999.436 209.493 1000.07 208.214 1000.95 207.217 1002.08 206.499 1003.21 205.782 1004.54 205.423 1006.06 205.423 1006.99 205.423 1007.88 205.576 1008.75 205.881 1009.61 206.187 1010.39 206.666 1011.08 207.32 1011.77 207.973 1012.31 208.822 1012.71 209.866 1013.11 210.903 1013.31 212.163 1013.31 213.648V214.777H1000.3V212.391H1010.19C1010.19 211.553 1010.01 210.81 1009.67 210.164 1009.33 209.511 1008.85 208.996 1008.24 208.619 1007.62 208.243 1006.91 208.055 1006.08 208.055 1005.19 208.055 1004.41 208.275 1003.74 208.715 1003.08 209.148 1002.57 209.717 1002.21 210.42 1001.85 211.116 1001.67 211.872 1001.67 212.689V214.553C1001.67 215.647 1001.86 216.577 1002.25 217.344 1002.64 218.112 1003.18 218.697 1003.88 219.102 1004.57 219.5 1005.39 219.699 1006.32 219.699 1006.92 219.699 1007.47 219.614 1007.97 219.443 1008.47 219.266 1008.9 219.003 1009.26 218.655 1009.62 218.307 1009.9 217.877 1010.09 217.366L1013.1 217.909C1012.86 218.797 1012.43 219.575 1011.8 220.242 1011.19 220.903 1010.41 221.418 1009.47 221.787 1008.54 222.149 1007.48 222.33 1006.29 222.33ZM1016.2 222V219.614L1023.58 211.964C1024.37 211.134 1025.02 210.406 1025.53 209.781 1026.05 209.148 1026.44 208.548 1026.69 207.98 1026.95 207.412 1027.08 206.808 1027.08 206.169 1027.08 205.445 1026.91 204.82 1026.56 204.294 1026.22 203.761 1025.76 203.353 1025.17 203.069 1024.58 202.778 1023.91 202.632 1023.18 202.632 1022.4 202.632 1021.71 202.792 1021.13 203.112 1020.55 203.431 1020.1 203.882 1019.79 204.464 1019.48 205.047 1019.32 205.729 1019.32 206.51H1016.18C1016.18 205.182 1016.48 204.021 1017.09 203.026 1017.7 202.032 1018.54 201.261 1019.61 200.714 1020.67 200.161 1021.88 199.884 1023.24 199.884 1024.61 199.884 1025.82 200.157 1026.86 200.704 1027.91 201.244 1028.73 201.982 1029.32 202.92 1029.91 203.85 1030.21 204.901 1030.21 206.073 1030.21 206.883 1030.05 207.675 1029.75 208.449 1029.45 209.223 1028.93 210.086 1028.18 211.038 1027.44 211.982 1026.4 213.129 1025.07 214.479L1020.74 219.017V219.177H1030.56V222H1016.2ZM1040.17 222.32C1038.84 222.32 1037.67 221.982 1036.63 221.308 1035.6 220.626 1034.79 219.656 1034.2 218.399 1033.62 217.135 1033.33 215.619 1033.33 213.85 1033.33 212.082 1033.62 210.569 1034.21 209.312 1034.81 208.055 1035.62 207.092 1036.66 206.425 1037.7 205.757 1038.87 205.423 1040.19 205.423 1041.2 205.423 1042.02 205.594 1042.64 205.935 1043.26 206.268 1043.74 206.659 1044.09 207.107 1044.43 207.554 1044.7 207.948 1044.9 208.289H1045.09V200.182H1048.27V222H1045.16V219.454H1044.9C1044.7 219.802 1044.43 220.2 1044.06 220.647 1043.71 221.094 1043.22 221.485 1042.59 221.819 1041.97 222.153 1041.16 222.32 1040.17 222.32ZM1040.87 219.603C1041.78 219.603 1042.56 219.362 1043.19 218.879 1043.83 218.388 1044.31 217.71 1044.64 216.844 1044.97 215.977 1045.14 214.969 1045.14 213.818 1045.14 212.682 1044.98 211.687 1044.65 210.835 1044.32 209.983 1043.84 209.319 1043.21 208.843 1042.58 208.367 1041.8 208.129 1040.87 208.129 1039.91 208.129 1039.11 208.378 1038.47 208.875 1037.83 209.372 1037.35 210.05 1037.02 210.91 1036.7 211.769 1036.54 212.739 1036.54 213.818 1036.54 214.912 1036.71 215.896 1037.03 216.769 1037.36 217.643 1037.84 218.335 1038.48 218.847 1039.13 219.351 1039.92 219.603 1040.87 219.603ZM1060.45 200.182V222H1057.15V203.484H1057.02L1051.8 206.893V203.74L1057.25 200.182H1060.45ZM1071.92 222.32C1070.6 222.32 1069.42 221.982 1068.39 221.308 1067.36 220.626 1066.55 219.656 1065.96 218.399 1065.38 217.135 1065.08 215.619 1065.08 213.85 1065.08 212.082 1065.38 210.569 1065.97 209.312 1066.57 208.055 1067.38 207.092 1068.42 206.425 1069.46 205.757 1070.63 205.423 1071.95 205.423 1072.96 205.423 1073.78 205.594 1074.4 205.935 1075.02 206.268 1075.5 206.659 1075.84 207.107 1076.19 207.554 1076.46 207.948 1076.65 208.289H1076.85V200.182H1080.03V222H1076.92V219.454H1076.65C1076.46 219.802 1076.19 220.2 1075.82 220.647 1075.47 221.094 1074.98 221.485 1074.35 221.819 1073.73 222.153 1072.92 222.32 1071.92 222.32ZM1072.63 219.603C1073.54 219.603 1074.32 219.362 1074.95 218.879 1075.59 218.388 1076.07 217.71 1076.4 216.844 1076.73 215.977 1076.9 214.969 1076.9 213.818 1076.9 212.682 1076.74 211.687 1076.41 210.835 1076.08 209.983 1075.6 209.319 1074.97 208.843 1074.34 208.367 1073.56 208.129 1072.63 208.129 1071.67 208.129 1070.87 208.378 1070.23 208.875 1069.59 209.372 1069.11 210.05 1068.78 210.91 1068.46 211.769 1068.3 212.739 1068.3 213.818 1068.3 214.912 1068.47 215.896 1068.79 216.769 1069.12 217.643 1069.6 218.335 1070.24 218.847 1070.89 219.351 1071.68 219.603 1072.63 219.603ZM1091.77 205.636V208.193H1082.52V205.636H1091.77ZM1085.05 222V203.74C1085.05 202.717 1085.28 201.869 1085.72 201.194 1086.17 200.512 1086.77 200.004 1087.5 199.67 1088.24 199.33 1089.05 199.159 1089.91 199.159 1090.55 199.159 1091.1 199.212 1091.55 199.319 1092.01 199.418 1092.34 199.511 1092.56 199.596L1091.82 202.174C1091.67 202.131 1091.48 202.082 1091.24 202.025 1091.01 201.961 1090.72 201.929 1090.39 201.929 1089.62 201.929 1089.06 202.121 1088.73 202.504 1088.4 202.888 1088.24 203.442 1088.24 204.166V222H1085.05ZM951.003 258V255.614L958.386 247.964C959.175 247.134 959.824 246.406 960.336 245.781 960.854 245.148 961.241 244.548 961.497 243.98 961.753 243.412 961.881 242.808 961.881 242.169 961.881 241.445 961.71 240.82 961.369 240.294 961.028 239.761 960.563 239.353 959.974 239.069 959.384 238.778 958.72 238.632 957.981 238.632 957.2 238.632 956.518 238.792 955.936 239.112 955.354 239.431 954.906 239.882 954.594 240.464 954.281 241.047 954.125 241.729 954.125 242.51H950.982C950.982 241.182 951.287 240.021 951.898 239.026 952.509 238.032 953.347 237.261 954.412 236.714 955.478 236.161 956.689 235.884 958.045 235.884 959.416 235.884 960.623 236.157 961.667 236.704 962.719 237.244 963.539 237.982 964.128 238.92 964.718 239.85 965.013 240.901 965.013 242.073 965.013 242.883 964.86 243.675 964.555 244.449 964.256 245.223 963.734 246.086 962.988 247.038 962.243 247.982 961.206 249.129 959.878 250.479L955.542 255.017V255.177H965.364V258H951.003ZM968.802 258V255.614L976.185 247.964C976.973 247.134 977.623 246.406 978.134 245.781 978.653 245.148 979.04 244.548 979.295 243.98 979.551 243.412 979.679 242.808 979.679 242.169 979.679 241.445 979.509 240.82 979.168 240.294 978.827 239.761 978.362 239.353 977.772 239.069 977.183 238.778 976.518 238.632 975.78 238.632 974.999 238.632 974.317 238.792 973.734 239.112 973.152 239.431 972.705 239.882 972.392 240.464 972.08 241.047 971.923 241.729 971.923 242.51H968.781C968.781 241.182 969.086 240.021 969.697 239.026 970.308 238.032 971.146 237.261 972.211 236.714 973.276 236.161 974.487 235.884 975.844 235.884 977.214 235.884 978.422 236.157 979.466 236.704 980.517 237.244 981.337 237.982 981.927 238.92 982.516 239.85 982.811 240.901 982.811 242.073 982.811 242.883 982.658 243.675 982.353 244.449 982.055 245.223 981.533 246.086 980.787 247.038 980.041 247.982 979.004 249.129 977.676 250.479L973.34 255.017V255.177H983.163V258H968.802ZM993.695 258.33C992.083 258.33 990.695 257.986 989.53 257.297 988.372 256.601 987.477 255.624 986.845 254.367 986.22 253.103 985.908 251.622 985.908 249.925 985.908 248.249 986.22 246.771 986.845 245.493 987.477 244.214 988.358 243.217 989.487 242.499 990.624 241.782 991.952 241.423 993.472 241.423 994.395 241.423 995.29 241.576 996.156 241.881 997.023 242.187 997.801 242.666 998.489 243.32 999.178 243.973 999.722 244.822 1000.12 245.866 1000.52 246.903 1000.72 248.163 1000.72 249.648V250.777H987.708V248.391H997.595C997.595 247.553 997.424 246.81 997.083 246.164 996.742 245.511 996.263 244.996 995.645 244.619 995.034 244.243 994.317 244.055 993.493 244.055 992.598 244.055 991.817 244.275 991.149 244.715 990.489 245.148 989.977 245.717 989.615 246.42 989.26 247.116 989.083 247.872 989.083 248.689V250.553C989.083 251.647 989.274 252.577 989.658 253.344 990.048 254.112 990.592 254.697 991.288 255.102 991.984 255.5 992.797 255.699 993.727 255.699 994.331 255.699 994.882 255.614 995.379 255.443 995.876 255.266 996.306 255.003 996.668 254.655 997.03 254.307 997.307 253.877 997.499 253.366L1000.51 253.909C1000.27 254.797 999.839 255.575 999.214 256.242 998.596 256.903 997.818 257.418 996.881 257.787 995.95 258.149 994.889 258.33 993.695 258.33ZM1011.22 258.298C1010.25 258.284 1009.29 258.107 1008.35 257.766 1007.41 257.425 1006.56 256.857 1005.79 256.061 1005.02 255.266 1004.41 254.197 1003.95 252.854 1003.49 251.512 1003.27 249.836 1003.27 247.826 1003.27 245.923 1003.46 244.232 1003.83 242.755 1004.21 241.278 1004.77 240.031 1005.48 239.016 1006.2 237.993 1007.07 237.215 1008.08 236.683 1009.1 236.15 1010.24 235.884 1011.5 235.884 1012.8 235.884 1013.96 236.139 1014.96 236.651 1015.97 237.162 1016.79 237.869 1017.41 238.771 1018.05 239.673 1018.45 240.699 1018.62 241.849H1015.37C1015.15 240.94 1014.71 240.198 1014.06 239.623 1013.41 239.048 1012.55 238.76 1011.5 238.76 1009.9 238.76 1008.66 239.456 1007.76 240.848 1006.87 242.24 1006.43 244.175 1006.42 246.654H1006.58C1006.96 246.036 1007.42 245.511 1007.96 245.077 1008.52 244.637 1009.14 244.3 1009.82 244.065 1010.51 243.824 1011.23 243.703 1011.99 243.703 1013.26 243.703 1014.4 244.012 1015.42 244.63 1016.45 245.241 1017.27 246.086 1017.88 247.165 1018.49 248.245 1018.8 249.481 1018.8 250.873 1018.8 252.265 1018.48 253.526 1017.85 254.655 1017.23 255.784 1016.35 256.679 1015.21 257.339 1014.07 257.993 1012.74 258.312 1011.22 258.298ZM1011.21 255.528C1012.05 255.528 1012.8 255.322 1013.46 254.911 1014.12 254.499 1014.64 253.945 1015.03 253.249 1015.41 252.553 1015.6 251.775 1015.6 250.915 1015.6 250.077 1015.42 249.314 1015.04 248.625 1014.67 247.936 1014.16 247.389 1013.5 246.984 1012.86 246.58 1012.12 246.377 1011.29 246.377 1010.66 246.377 1010.07 246.498 1009.53 246.739 1009 246.981 1008.53 247.315 1008.12 247.741 1007.72 248.167 1007.4 248.657 1007.17 249.211 1006.94 249.758 1006.83 250.337 1006.83 250.947 1006.83 251.764 1007.01 252.521 1007.39 253.217 1007.77 253.913 1008.3 254.474 1008.96 254.9 1009.62 255.319 1010.38 255.528 1011.21 255.528ZM1029.68 258.362C1027.99 258.355 1026.55 257.911 1025.36 257.031 1024.17 256.15 1023.26 254.868 1022.62 253.185 1021.99 251.501 1021.68 249.474 1021.68 247.102 1021.68 244.737 1021.99 242.716 1022.62 241.04 1023.26 239.364 1024.18 238.085 1025.37 237.205 1026.57 236.324 1028.01 235.884 1029.68 235.884 1031.34 235.884 1032.78 236.327 1033.97 237.215 1035.16 238.096 1036.07 239.374 1036.71 241.05 1037.35 242.719 1037.67 244.737 1037.67 247.102 1037.67 249.481 1037.35 251.512 1036.72 253.195 1036.09 254.871 1035.17 256.153 1033.98 257.041 1032.79 257.922 1031.35 258.362 1029.68 258.362ZM1029.68 255.518C1031.15 255.518 1032.31 254.797 1033.14 253.355 1033.98 251.913 1034.4 249.829 1034.4 247.102 1034.4 245.29 1034.2 243.76 1033.82 242.51 1033.44 241.253 1032.9 240.301 1032.19 239.655 1031.49 239.001 1030.65 238.675 1029.68 238.675 1028.21 238.675 1027.05 239.399 1026.21 240.848 1025.38 242.297 1024.95 244.381 1024.95 247.102 1024.95 248.92 1025.13 250.457 1025.51 251.714 1025.89 252.964 1026.44 253.913 1027.14 254.559 1027.84 255.198 1028.69 255.518 1029.68 255.518ZM1047.94 258.33C1046.33 258.33 1044.94 257.986 1043.77 257.297 1042.62 256.601 1041.72 255.624 1041.09 254.367 1040.47 253.103 1040.15 251.622 1040.15 249.925 1040.15 248.249 1040.47 246.771 1041.09 245.493 1041.72 244.214 1042.6 243.217 1043.73 242.499 1044.87 241.782 1046.2 241.423 1047.72 241.423 1048.64 241.423 1049.53 241.576 1050.4 241.881 1051.27 242.187 1052.05 242.666 1052.73 243.32 1053.42 243.973 1053.97 244.822 1054.36 245.866 1054.76 246.903 1054.96 248.163 1054.96 249.648V250.777H1041.95V248.391H1051.84C1051.84 247.553 1051.67 246.81 1051.33 246.164 1050.99 245.511 1050.51 244.996 1049.89 244.619 1049.28 244.243 1048.56 244.055 1047.74 244.055 1046.84 244.055 1046.06 244.275 1045.39 244.715 1044.73 245.148 1044.22 245.717 1043.86 246.42 1043.51 247.116 1043.33 247.872 1043.33 248.689V250.553C1043.33 251.647 1043.52 252.577 1043.9 253.344 1044.29 254.112 1044.84 254.697 1045.53 255.102 1046.23 255.5 1047.04 255.699 1047.97 255.699 1048.58 255.699 1049.13 255.614 1049.62 255.443 1050.12 255.266 1050.55 255.003 1050.91 254.655 1051.27 254.307 1051.55 253.877 1051.74 253.366L1054.76 253.909C1054.52 254.797 1054.08 255.575 1053.46 256.242 1052.84 256.903 1052.06 257.418 1051.13 257.787 1050.2 258.149 1049.13 258.33 1047.94 258.33ZM1065.45 258.362C1063.77 258.355 1062.33 257.911 1061.13 257.031 1059.94 256.15 1059.03 254.868 1058.4 253.185 1057.76 251.501 1057.45 249.474 1057.45 247.102 1057.45 244.737 1057.76 242.716 1058.4 241.04 1059.04 239.364 1059.95 238.085 1061.14 237.205 1062.34 236.324 1063.78 235.884 1065.45 235.884 1067.12 235.884 1068.55 236.327 1069.74 237.215 1070.94 238.096 1071.85 239.374 1072.48 241.05 1073.12 242.719 1073.44 244.737 1073.44 247.102 1073.44 249.481 1073.12 251.512 1072.49 253.195 1071.86 254.871 1070.95 256.153 1069.75 257.041 1068.56 257.922 1067.12 258.362 1065.45 258.362ZM1065.45 255.518C1066.93 255.518 1068.08 254.797 1068.91 253.355 1069.75 251.913 1070.17 249.829 1070.17 247.102 1070.17 245.29 1069.98 243.76 1069.59 242.51 1069.22 241.253 1068.67 240.301 1067.96 239.655 1067.26 239.001 1066.42 238.675 1065.45 238.675 1063.98 238.675 1062.82 239.399 1061.99 240.848 1061.15 242.297 1060.73 244.381 1060.72 247.102 1060.72 248.92 1060.91 250.457 1061.28 251.714 1061.67 252.964 1062.21 253.913 1062.91 254.559 1063.62 255.198 1064.46 255.518 1065.45 255.518ZM1084.45 241.636V244.193H1075.2V241.636H1084.45ZM1077.74 258V239.74C1077.74 238.717 1077.96 237.869 1078.41 237.194 1078.86 236.512 1079.45 236.004 1080.19 235.67 1080.93 235.33 1081.73 235.159 1082.59 235.159 1083.23 235.159 1083.78 235.212 1084.24 235.319 1084.69 235.418 1085.03 235.511 1085.25 235.596L1084.5 238.174C1084.35 238.131 1084.16 238.082 1083.93 238.025 1083.69 237.961 1083.41 237.929 1083.07 237.929 1082.3 237.929 1081.75 238.121 1081.41 238.504 1081.09 238.888 1080.92 239.442 1080.92 240.166V258H1077.74ZM961.836 294.362C960.799 294.362 959.862 294.17 959.024 293.787 958.186 293.396 957.522 292.832 957.032 292.093 956.549 291.354 956.307 290.449 956.307 289.376 956.307 288.453 956.485 287.693 956.84 287.097 957.195 286.5 957.674 286.028 958.278 285.68 958.882 285.332 959.556 285.069 960.302 284.891 961.048 284.714 961.808 284.579 962.582 284.487 963.562 284.373 964.358 284.281 964.968 284.21 965.579 284.131 966.023 284.007 966.3 283.837 966.577 283.666 966.715 283.389 966.715 283.006V282.931C966.715 282.001 966.453 281.28 965.927 280.768 965.409 280.257 964.635 280.001 963.605 280.001 962.532 280.001 961.687 280.239 961.069 280.715 960.458 281.184 960.036 281.706 959.801 282.281L956.808 281.599C957.163 280.605 957.681 279.803 958.363 279.192 959.052 278.574 959.844 278.126 960.739 277.849 961.634 277.565 962.575 277.423 963.562 277.423 964.215 277.423 964.908 277.501 965.639 277.658 966.378 277.807 967.067 278.084 967.706 278.489 968.353 278.893 968.882 279.472 969.294 280.225 969.706 280.971 969.912 281.94 969.912 283.134V294H966.801V291.763H966.673C966.467 292.175 966.158 292.58 965.746 292.977 965.334 293.375 964.805 293.705 964.159 293.968 963.512 294.231 962.738 294.362 961.836 294.362ZM962.529 291.805C963.409 291.805 964.162 291.631 964.787 291.283 965.419 290.935 965.899 290.481 966.225 289.92 966.559 289.352 966.726 288.744 966.726 288.098V285.989C966.612 286.102 966.392 286.209 966.066 286.308 965.746 286.401 965.38 286.482 964.968 286.553 964.556 286.617 964.155 286.678 963.764 286.734 963.374 286.784 963.047 286.827 962.784 286.862 962.166 286.94 961.602 287.072 961.09 287.256 960.586 287.441 960.181 287.707 959.876 288.055 959.578 288.396 959.429 288.851 959.429 289.419 959.429 290.207 959.72 290.804 960.302 291.209 960.885 291.607 961.627 291.805 962.529 291.805ZM981.107 294.362C979.424 294.355 977.986 293.911 976.793 293.031 975.6 292.15 974.687 290.868 974.055 289.185 973.423 287.501 973.107 285.474 973.107 283.102 973.107 280.737 973.423 278.716 974.055 277.04 974.694 275.364 975.61 274.085 976.804 273.205 978.004 272.324 979.438 271.884 981.107 271.884 982.777 271.884 984.208 272.327 985.401 273.215 986.594 274.096 987.507 275.374 988.139 277.05 988.778 278.719 989.098 280.737 989.098 283.102 989.098 285.481 988.781 287.512 988.149 289.195 987.517 290.871 986.605 292.153 985.411 293.041 984.218 293.922 982.784 294.362 981.107 294.362ZM981.107 291.518C982.585 291.518 983.739 290.797 984.57 289.355 985.408 287.913 985.827 285.829 985.827 283.102 985.827 281.29 985.635 279.76 985.252 278.51 984.875 277.253 984.332 276.301 983.622 275.655 982.919 275.001 982.081 274.675 981.107 274.675 979.637 274.675 978.483 275.399 977.645 276.848 976.807 278.297 976.384 280.381 976.377 283.102 976.377 284.92 976.566 286.457 976.942 287.714 977.326 288.964 977.869 289.913 978.572 290.559 979.275 291.198 980.12 291.518 981.107 291.518ZM999.479 294.298C998.143 294.298 996.943 294.043 995.878 293.531 994.819 293.013 993.974 292.303 993.342 291.401 992.71 290.499 992.373 289.469 992.33 288.311H995.526C995.604 289.249 996.02 290.019 996.773 290.623 997.525 291.227 998.427 291.528 999.479 291.528 1000.32 291.528 1001.06 291.337 1001.71 290.953 1002.36 290.562 1002.87 290.026 1003.24 289.344 1003.62 288.663 1003.8 287.885 1003.8 287.011 1003.8 286.124 1003.61 285.332 1003.23 284.636 1002.85 283.94 1002.32 283.393 1001.64 282.995 1000.97 282.597 1000.21 282.395 999.34 282.388 998.68 282.388 998.015 282.501 997.348 282.729 996.68 282.956 996.14 283.254 995.729 283.624L992.714 283.176 993.939 272.182H1005.93V275.005H996.677L995.984 281.109H996.112C996.538 280.697 997.103 280.353 997.806 280.076 998.516 279.799 999.276 279.661 1000.09 279.661 1001.41 279.661 1002.6 279.977 1003.63 280.609 1004.68 281.241 1005.5 282.104 1006.09 283.197 1006.7 284.284 1007 285.534 1006.99 286.947 1007 288.361 1006.68 289.621 1006.03 290.729 1005.39 291.837 1004.5 292.711 1003.37 293.35 1002.24 293.982 1000.94 294.298 999.479 294.298ZM1015.09 294.362C1014.05 294.362 1013.11 294.17 1012.27 293.787 1011.43 293.396 1010.77 292.832 1010.28 292.093 1009.8 291.354 1009.56 290.449 1009.56 289.376 1009.56 288.453 1009.73 287.693 1010.09 287.097 1010.44 286.5 1010.92 286.028 1011.53 285.68 1012.13 285.332 1012.81 285.069 1013.55 284.891 1014.3 284.714 1015.06 284.579 1015.83 284.487 1016.81 284.373 1017.61 284.281 1018.22 284.21 1018.83 284.131 1019.27 284.007 1019.55 283.837 1019.83 283.666 1019.96 283.389 1019.96 283.006V282.931C1019.96 282.001 1019.7 281.28 1019.18 280.768 1018.66 280.257 1017.88 280.001 1016.85 280.001 1015.78 280.001 1014.94 280.239 1014.32 280.715 1013.71 281.184 1013.28 281.706 1013.05 282.281L1010.06 281.599C1010.41 280.605 1010.93 279.803 1011.61 279.192 1012.3 278.574 1013.09 278.126 1013.99 277.849 1014.88 277.565 1015.82 277.423 1016.81 277.423 1017.46 277.423 1018.16 277.501 1018.89 277.658 1019.63 277.807 1020.32 278.084 1020.96 278.489 1021.6 278.893 1022.13 279.472 1022.54 280.225 1022.95 280.971 1023.16 281.94 1023.16 283.134V294H1020.05V291.763H1019.92C1019.72 292.175 1019.41 292.58 1018.99 292.977 1018.58 293.375 1018.05 293.705 1017.41 293.968 1016.76 294.231 1015.99 294.362 1015.09 294.362ZM1015.78 291.805C1016.66 291.805 1017.41 291.631 1018.04 291.283 1018.67 290.935 1019.15 290.481 1019.47 289.92 1019.81 289.352 1019.97 288.744 1019.97 288.098V285.989C1019.86 286.102 1019.64 286.209 1019.31 286.308 1018.99 286.401 1018.63 286.482 1018.22 286.553 1017.81 286.617 1017.4 286.678 1017.01 286.734 1016.62 286.784 1016.3 286.827 1016.03 286.862 1015.42 286.94 1014.85 287.072 1014.34 287.256 1013.84 287.441 1013.43 287.707 1013.12 288.055 1012.83 288.396 1012.68 288.851 1012.68 289.419 1012.68 290.207 1012.97 290.804 1013.55 291.209 1014.13 291.607 1014.88 291.805 1015.78 291.805ZM1034.13 294.298C1032.61 294.298 1031.26 294.036 1030.08 293.51 1028.92 292.984 1028.01 292.26 1027.35 291.337 1026.69 290.413 1026.36 289.362 1026.37 288.183 1026.36 287.26 1026.55 286.411 1026.93 285.637 1027.32 284.856 1027.85 284.206 1028.52 283.688 1029.19 283.162 1029.93 282.828 1030.76 282.686V282.558C1029.67 282.295 1028.8 281.713 1028.15 280.811 1027.49 279.909 1027.17 278.872 1027.18 277.7 1027.17 276.585 1027.46 275.591 1028.06 274.717 1028.66 273.837 1029.49 273.144 1030.54 272.64 1031.59 272.136 1032.79 271.884 1034.13 271.884 1035.46 271.884 1036.65 272.139 1037.69 272.651 1038.74 273.155 1039.57 273.847 1040.17 274.728 1040.78 275.602 1041.08 276.592 1041.09 277.7 1041.08 278.872 1040.75 279.909 1040.09 280.811 1039.43 281.713 1038.57 282.295 1037.51 282.558V282.686C1038.33 282.828 1039.06 283.162 1039.71 283.688 1040.38 284.206 1040.9 284.856 1041.29 285.637 1041.69 286.411 1041.89 287.26 1041.9 288.183 1041.89 289.362 1041.56 290.413 1040.9 291.337 1040.24 292.26 1039.32 292.984 1038.15 293.51 1036.98 294.036 1035.65 294.298 1034.13 294.298ZM1034.13 291.603C1035.03 291.603 1035.82 291.454 1036.48 291.156 1037.14 290.85 1037.65 290.428 1038.01 289.888 1038.37 289.341 1038.56 288.702 1038.56 287.97 1038.56 287.21 1038.36 286.539 1037.97 285.957 1037.58 285.374 1037.06 284.916 1036.4 284.582 1035.74 284.249 1034.98 284.082 1034.13 284.082 1033.27 284.082 1032.51 284.249 1031.84 284.582 1031.17 284.916 1030.65 285.374 1030.27 285.957 1029.88 286.539 1029.69 287.21 1029.7 287.97 1029.69 288.702 1029.87 289.341 1030.22 289.888 1030.59 290.428 1031.1 290.85 1031.77 291.156 1032.44 291.454 1033.22 291.603 1034.13 291.603ZM1034.13 281.45C1034.86 281.45 1035.5 281.305 1036.06 281.013 1036.62 280.722 1037.06 280.317 1037.38 279.799 1037.71 279.281 1037.88 278.673 1037.88 277.977 1037.88 277.295 1037.71 276.699 1037.39 276.188 1037.08 275.676 1036.64 275.282 1036.08 275.005 1035.52 274.721 1034.87 274.579 1034.13 274.579 1033.38 274.579 1032.72 274.721 1032.15 275.005 1031.59 275.282 1031.15 275.676 1030.84 276.188 1030.53 276.699 1030.38 277.295 1030.38 277.977 1030.38 278.673 1030.53 279.281 1030.85 279.799 1031.17 280.317 1031.61 280.722 1032.17 281.013 1032.74 281.305 1033.39 281.45 1034.13 281.45ZM1044.66 289.739V287.075L1054.09 272.182H1056.18V276.102H1054.85L1048.11 286.777V286.947H1061.03V289.739H1044.66ZM1055 294V288.929L1055.02 287.714V272.182H1058.14V294H1055ZM1071.08 294.33C1069.5 294.33 1068.13 293.972 1066.99 293.254 1065.85 292.53 1064.98 291.532 1064.37 290.261 1063.76 288.989 1063.45 287.533 1063.45 285.893 1063.45 284.231 1063.76 282.764 1064.39 281.493 1065.01 280.214 1065.9 279.217 1067.03 278.499 1068.17 277.782 1069.51 277.423 1071.05 277.423 1072.29 277.423 1073.4 277.654 1074.37 278.116 1075.34 278.57 1076.13 279.21 1076.73 280.033 1077.33 280.857 1077.69 281.82 1077.8 282.92H1074.7C1074.53 282.153 1074.14 281.493 1073.53 280.939 1072.93 280.385 1072.12 280.108 1071.1 280.108 1070.21 280.108 1069.44 280.342 1068.77 280.811 1068.11 281.273 1067.59 281.933 1067.22 282.793 1066.85 283.645 1066.67 284.653 1066.67 285.818 1066.67 287.011 1066.85 288.041 1067.21 288.908 1067.57 289.774 1068.09 290.445 1068.75 290.921 1069.41 291.397 1070.2 291.635 1071.1 291.635 1071.7 291.635 1072.25 291.525 1072.74 291.305 1073.24 291.077 1073.65 290.754 1073.99 290.335 1074.33 289.916 1074.57 289.412 1074.7 288.822H1077.8C1077.69 289.881 1077.34 290.825 1076.77 291.656 1076.19 292.487 1075.42 293.141 1074.46 293.616 1073.5 294.092 1072.37 294.33 1071.08 294.33Z"/><path d="M145.162 430.909V460H140.773V430.909H145.162ZM154.66 447.045V460H150.413V438.182H154.49V441.733H154.76C155.261 440.578 156.047 439.65 157.117 438.949 158.197 438.248 159.556 437.898 161.194 437.898 162.681 437.898 163.983 438.21 165.1 438.835 166.218 439.451 167.084 440.369 167.7 441.591 168.315 442.812 168.623 444.323 168.623 446.122V460H164.376V446.634C164.376 445.052 163.964 443.816 163.14 442.926 162.316 442.027 161.185 441.577 159.745 441.577 158.76 441.577 157.885 441.79 157.117 442.216 156.36 442.642 155.759 443.267 155.313 444.091 154.878 444.905 154.66 445.89 154.66 447.045ZM173.519 468.182V438.182H177.667V441.719H178.022C178.268 441.264 178.623 440.739 179.087 440.142 179.551 439.545 180.195 439.025 181.019 438.58 181.843 438.125 182.932 437.898 184.286 437.898 186.048 437.898 187.62 438.343 189.002 439.233 190.385 440.123 191.469 441.406 192.255 443.082 193.05 444.759 193.448 446.776 193.448 449.134 193.448 451.491 193.055 453.513 192.269 455.199 191.483 456.875 190.404 458.168 189.031 459.077 187.657 459.976 186.09 460.426 184.329 460.426 183.003 460.426 181.919 460.204 181.076 459.759 180.243 459.313 179.589 458.793 179.116 458.196 178.642 457.599 178.278 457.069 178.022 456.605H177.766V468.182H173.519ZM177.681 449.091C177.681 450.625 177.904 451.97 178.349 453.125 178.794 454.28 179.438 455.185 180.281 455.838 181.123 456.482 182.156 456.804 183.377 456.804 184.646 456.804 185.707 456.468 186.559 455.795 187.411 455.114 188.055 454.19 188.491 453.026 188.936 451.861 189.158 450.549 189.158 449.091 189.158 447.652 188.941 446.359 188.505 445.213 188.079 444.067 187.435 443.163 186.573 442.5 185.721 441.837 184.656 441.506 183.377 441.506 182.146 441.506 181.104 441.823 180.252 442.457 179.409 443.092 178.77 443.977 178.335 445.114 177.899 446.25 177.681 447.576 177.681 449.091ZM211.228 450.952V438.182H215.489V460H211.313V456.222H211.086C210.584 457.386 209.779 458.357 208.671 459.134 207.572 459.901 206.204 460.284 204.566 460.284 203.164 460.284 201.924 459.976 200.844 459.361 199.774 458.736 198.931 457.812 198.316 456.591 197.71 455.369 197.407 453.859 197.407 452.06V438.182H201.654V451.548C201.654 453.035 202.066 454.219 202.89 455.099 203.713 455.98 204.784 456.42 206.1 456.42 206.895 456.42 207.686 456.222 208.472 455.824 209.267 455.426 209.926 454.825 210.446 454.02 210.977 453.215 211.237 452.192 211.228 450.952ZM230.58 438.182V441.591H218.663V438.182H230.58ZM221.859 432.955H226.106V453.594C226.106 454.418 226.229 455.038 226.475 455.455 226.721 455.862 227.039 456.141 227.427 456.293 227.825 456.435 228.256 456.506 228.72 456.506 229.061 456.506 229.359 456.482 229.614 456.435 229.87 456.387 230.069 456.349 230.211 456.321L230.978 459.83C230.732 459.924 230.382 460.019 229.927 460.114 229.472 460.218 228.904 460.275 228.222 460.284 227.105 460.303 226.063 460.104 225.097 459.688 224.132 459.271 223.35 458.627 222.754 457.756 222.157 456.884 221.859 455.791 221.859 454.474V432.955Z"/><path d="M536.189 438.551C536.038 437.206 535.413 436.165 534.314 435.426 533.216 434.678 531.833 434.304 530.166 434.304 528.973 434.304 527.941 434.493 527.07 434.872 526.199 435.241 525.521 435.753 525.038 436.406 524.565 437.05 524.328 437.784 524.328 438.608 524.328 439.299 524.489 439.896 524.811 440.398 525.143 440.9 525.574 441.321 526.104 441.662 526.644 441.993 527.221 442.273 527.837 442.5 528.452 442.718 529.044 442.898 529.612 443.04L532.453 443.778C533.381 444.006 534.333 444.313 535.308 444.702 536.284 445.09 537.188 445.601 538.021 446.236 538.855 446.87 539.527 447.656 540.038 448.594 540.559 449.531 540.82 450.653 540.82 451.96 540.82 453.608 540.394 455.071 539.541 456.349 538.699 457.628 537.472 458.636 535.862 459.375 534.262 460.114 532.325 460.483 530.053 460.483 527.875 460.483 525.99 460.137 524.399 459.446 522.808 458.755 521.563 457.775 520.663 456.506 519.764 455.227 519.267 453.712 519.172 451.96H523.575C523.661 453.011 524.002 453.887 524.598 454.588 525.204 455.279 525.976 455.795 526.913 456.136 527.86 456.468 528.897 456.634 530.024 456.634 531.265 456.634 532.368 456.439 533.334 456.051 534.309 455.653 535.076 455.104 535.635 454.403 536.194 453.693 536.473 452.865 536.473 451.918 536.473 451.056 536.227 450.35 535.735 449.801 535.252 449.252 534.593 448.797 533.76 448.438 532.936 448.078 532.003 447.76 530.962 447.486L527.524 446.548C525.195 445.914 523.348 444.981 521.985 443.75 520.63 442.519 519.953 440.89 519.953 438.864 519.953 437.187 520.408 435.724 521.317 434.474 522.226 433.224 523.457 432.254 525.01 431.562 526.563 430.862 528.315 430.511 530.266 430.511 532.235 430.511 533.973 430.857 535.479 431.548 536.994 432.24 538.187 433.191 539.058 434.403 539.93 435.606 540.384 436.989 540.422 438.551H536.189ZM545.265 460V430.909H549.654V443.551H564.157V430.909H568.56V460H564.157V447.315H549.654V460H545.265ZM576.61 460H571.951L582.419 430.909H587.49L597.959 460H593.3L585.076 436.193H584.848L576.61 460ZM577.391 448.608H592.505V452.301H577.391V448.608ZM613.874 443.608V447.301H600.977V443.608H613.874ZM617.506 460V456.818L627.35 446.619C628.401 445.511 629.267 444.541 629.949 443.707 630.641 442.865 631.157 442.064 631.498 441.307 631.838 440.549 632.009 439.744 632.009 438.892 632.009 437.926 631.782 437.093 631.327 436.392 630.873 435.682 630.252 435.137 629.466 434.759 628.68 434.37 627.795 434.176 626.81 434.176 625.768 434.176 624.859 434.389 624.083 434.815 623.306 435.241 622.71 435.843 622.293 436.619 621.876 437.396 621.668 438.305 621.668 439.347H617.478C617.478 437.576 617.885 436.027 618.699 434.702 619.514 433.376 620.631 432.348 622.052 431.619 623.472 430.881 625.087 430.511 626.895 430.511 628.723 430.511 630.333 430.876 631.725 431.605 633.126 432.325 634.22 433.31 635.006 434.56 635.792 435.8 636.185 437.202 636.185 438.764 636.185 439.844 635.981 440.9 635.574 441.932 635.177 442.964 634.481 444.115 633.486 445.384 632.492 446.643 631.109 448.172 629.338 449.972L623.557 456.023V456.236H636.654V460H617.506ZM650.84 460.398C649.059 460.398 647.459 460.057 646.038 459.375 644.628 458.684 643.501 457.737 642.658 456.534 641.815 455.331 641.365 453.958 641.308 452.415H645.57C645.674 453.665 646.228 454.692 647.232 455.497 648.235 456.302 649.438 456.705 650.84 456.705 651.957 456.705 652.947 456.449 653.808 455.938 654.68 455.417 655.361 454.702 655.854 453.793 656.356 452.884 656.607 451.847 656.607 450.682 656.607 449.498 656.351 448.442 655.84 447.514 655.328 446.586 654.623 445.857 653.723 445.327 652.833 444.796 651.81 444.527 650.655 444.517 649.774 444.517 648.889 444.669 647.999 444.972 647.109 445.275 646.389 445.672 645.84 446.165L641.82 445.568 643.453 430.909H659.448V434.673H647.104L646.181 442.812H646.351C646.919 442.263 647.672 441.804 648.61 441.435 649.556 441.065 650.57 440.881 651.649 440.881 653.42 440.881 654.997 441.302 656.379 442.145 657.771 442.988 658.865 444.138 659.661 445.597 660.466 447.045 660.863 448.712 660.854 450.597 660.863 452.481 660.437 454.162 659.575 455.639 658.723 457.116 657.539 458.281 656.024 459.134 654.519 459.976 652.79 460.398 650.84 460.398ZM675.398 460.398C674.101 460.379 672.823 460.142 671.563 459.688 670.313 459.233 669.177 458.475 668.154 457.415 667.131 456.354 666.312 454.929 665.697 453.139 665.091 451.349 664.788 449.115 664.788 446.435 664.788 443.897 665.038 441.643 665.54 439.673 666.052 437.704 666.786 436.042 667.742 434.688 668.698 433.324 669.854 432.287 671.208 431.577 672.562 430.866 674.082 430.511 675.768 430.511 677.501 430.511 679.039 430.852 680.384 431.534 681.729 432.216 682.818 433.158 683.651 434.361 684.494 435.563 685.029 436.932 685.256 438.466H680.924C680.63 437.254 680.048 436.264 679.177 435.497 678.305 434.73 677.169 434.347 675.768 434.347 673.637 434.347 671.975 435.275 670.782 437.131 669.598 438.987 669.002 441.567 668.992 444.872H669.205C669.707 444.048 670.323 443.348 671.052 442.77 671.79 442.183 672.614 441.733 673.523 441.42 674.442 441.098 675.408 440.938 676.421 440.938 678.107 440.938 679.631 441.349 680.995 442.173 682.368 442.988 683.462 444.115 684.276 445.554 685.091 446.993 685.498 448.641 685.498 450.497 685.498 452.353 685.076 454.034 684.234 455.54 683.4 457.045 682.226 458.239 680.711 459.119 679.196 459.991 677.425 460.417 675.398 460.398ZM675.384 456.705C676.502 456.705 677.501 456.43 678.381 455.881 679.262 455.331 679.958 454.593 680.469 453.665 680.981 452.737 681.236 451.7 681.236 450.554 681.236 449.437 680.985 448.419 680.484 447.5 679.991 446.581 679.309 445.852 678.438 445.312 677.576 444.773 676.591 444.503 675.484 444.503 674.641 444.503 673.859 444.664 673.14 444.986 672.43 445.308 671.805 445.753 671.265 446.321 670.725 446.889 670.299 447.543 669.986 448.281 669.683 449.01 669.532 449.782 669.532 450.597 669.532 451.686 669.783 452.694 670.285 453.622 670.796 454.55 671.492 455.298 672.373 455.866 673.263 456.425 674.267 456.705 675.384 456.705Z"/><path d="M918.503 460V430.909H922.892V443.551H937.395V430.909H941.799V460H937.395V447.315H922.892V460H918.503ZM953.399 460.483C952.017 460.483 950.767 460.227 949.649 459.716 948.532 459.195 947.646 458.442 946.993 457.457 946.349 456.473 946.027 455.265 946.027 453.835 946.027 452.604 946.264 451.591 946.737 450.795 947.211 450 947.85 449.37 948.655 448.906 949.46 448.442 950.359 448.092 951.354 447.855 952.348 447.618 953.361 447.438 954.393 447.315 955.7 447.164 956.761 447.041 957.575 446.946 958.39 446.842 958.981 446.676 959.351 446.449 959.72 446.222 959.905 445.852 959.905 445.341V445.241C959.905 444.001 959.554 443.04 958.854 442.358 958.162 441.676 957.13 441.335 955.757 441.335 954.327 441.335 953.2 441.652 952.376 442.287 951.562 442.912 950.999 443.608 950.686 444.375L946.695 443.466C947.168 442.14 947.859 441.07 948.768 440.256 949.687 439.432 950.743 438.835 951.936 438.466 953.129 438.087 954.384 437.898 955.7 437.898 956.571 437.898 957.495 438.002 958.47 438.21 959.455 438.409 960.374 438.778 961.226 439.318 962.088 439.858 962.793 440.63 963.342 441.634 963.892 442.628 964.166 443.92 964.166 445.511V460H960.018V457.017H959.848C959.573 457.566 959.161 458.106 958.612 458.636 958.063 459.167 957.357 459.607 956.496 459.957 955.634 460.308 954.602 460.483 953.399 460.483ZM954.322 457.074C955.497 457.074 956.5 456.842 957.334 456.378 958.177 455.914 958.816 455.308 959.251 454.56 959.696 453.802 959.919 452.992 959.919 452.131V449.318C959.767 449.47 959.474 449.612 959.038 449.744 958.612 449.867 958.124 449.976 957.575 450.071 957.026 450.156 956.491 450.237 955.97 450.312 955.449 450.379 955.014 450.436 954.663 450.483 953.839 450.587 953.087 450.762 952.405 451.009 951.732 451.255 951.193 451.61 950.785 452.074 950.388 452.528 950.189 453.134 950.189 453.892 950.189 454.943 950.577 455.739 951.354 456.278 952.13 456.809 953.12 457.074 954.322 457.074ZM985.373 443.509 981.523 444.19C981.362 443.698 981.106 443.229 980.756 442.784 980.415 442.339 979.951 441.974 979.364 441.69 978.777 441.406 978.043 441.264 977.162 441.264 975.96 441.264 974.956 441.534 974.151 442.074 973.346 442.604 972.944 443.291 972.944 444.134 972.944 444.863 973.213 445.45 973.753 445.895 974.293 446.34 975.164 446.705 976.367 446.989L979.833 447.784C981.84 448.248 983.337 448.963 984.321 449.929 985.306 450.895 985.799 452.15 985.799 453.693 985.799 455 985.42 456.165 984.662 457.188 983.914 458.201 982.868 458.996 981.523 459.574 980.188 460.152 978.64 460.44 976.878 460.44 974.435 460.44 972.442 459.92 970.898 458.878 969.355 457.827 968.408 456.335 968.057 454.403L972.162 453.778C972.418 454.848 972.944 455.658 973.739 456.207 974.534 456.747 975.571 457.017 976.85 457.017 978.242 457.017 979.355 456.728 980.188 456.151 981.021 455.563 981.438 454.848 981.438 454.006 981.438 453.324 981.182 452.751 980.671 452.287 980.169 451.823 979.397 451.473 978.355 451.236L974.662 450.426C972.626 449.962 971.121 449.223 970.145 448.21 969.179 447.197 968.696 445.914 968.696 444.361 968.696 443.073 969.056 441.946 969.776 440.98 970.496 440.014 971.49 439.261 972.759 438.722 974.028 438.172 975.481 437.898 977.12 437.898 979.478 437.898 981.334 438.409 982.688 439.432 984.042 440.445 984.937 441.804 985.373 443.509ZM993.916 447.045V460H989.668V430.909H993.859V441.733H994.129C994.64 440.559 995.421 439.626 996.472 438.935 997.524 438.243 998.897 437.898 1000.59 437.898 1002.09 437.898 1003.39 438.205 1004.51 438.821 1005.64 439.437 1006.51 440.355 1007.13 441.577 1007.75 442.789 1008.06 444.304 1008.06 446.122V460H1003.82V446.634C1003.82 445.033 1003.4 443.793 1002.58 442.912 1001.76 442.022 1000.61 441.577 999.143 441.577 998.139 441.577 997.239 441.79 996.444 442.216 995.658 442.642 995.038 443.267 994.583 444.091 994.138 444.905 993.916 445.89 993.916 447.045ZM1041.38 438.182 1033.47 460H1028.92L1021 438.182H1025.56L1031.08 454.972H1031.31L1036.82 438.182H1041.38ZM1050.3 460.483C1048.91 460.483 1047.66 460.227 1046.55 459.716 1045.43 459.195 1044.54 458.442 1043.89 457.457 1043.25 456.473 1042.93 455.265 1042.93 453.835 1042.93 452.604 1043.16 451.591 1043.64 450.795 1044.11 450 1044.75 449.37 1045.55 448.906 1046.36 448.442 1047.26 448.092 1048.25 447.855 1049.25 447.618 1050.26 447.438 1051.29 447.315 1052.6 447.164 1053.66 447.041 1054.47 446.946 1055.29 446.842 1055.88 446.676 1056.25 446.449 1056.62 446.222 1056.8 445.852 1056.8 445.341V445.241C1056.8 444.001 1056.45 443.04 1055.75 442.358 1055.06 441.676 1054.03 441.335 1052.66 441.335 1051.23 441.335 1050.1 441.652 1049.27 442.287 1048.46 442.912 1047.9 443.608 1047.58 444.375L1043.59 443.466C1044.07 442.14 1044.76 441.07 1045.67 440.256 1046.59 439.432 1047.64 438.835 1048.83 438.466 1050.03 438.087 1051.28 437.898 1052.6 437.898 1053.47 437.898 1054.39 438.002 1055.37 438.21 1056.35 438.409 1057.27 438.778 1058.12 439.318 1058.99 439.858 1059.69 440.63 1060.24 441.634 1060.79 442.628 1061.06 443.92 1061.06 445.511V460H1056.92V457.017H1056.75C1056.47 457.566 1056.06 458.106 1055.51 458.636 1054.96 459.167 1054.26 459.607 1053.39 459.957 1052.53 460.308 1051.5 460.483 1050.3 460.483ZM1051.22 457.074C1052.4 457.074 1053.4 456.842 1054.23 456.378 1055.07 455.914 1055.71 455.308 1056.15 454.56 1056.59 453.802 1056.82 452.992 1056.82 452.131V449.318C1056.67 449.47 1056.37 449.612 1055.94 449.744 1055.51 449.867 1055.02 449.976 1054.47 450.071 1053.92 450.156 1053.39 450.237 1052.87 450.312 1052.35 450.379 1051.91 450.436 1051.56 450.483 1050.74 450.587 1049.99 450.762 1049.3 451.009 1048.63 451.255 1048.09 451.61 1047.68 452.074 1047.29 452.528 1047.09 453.134 1047.09 453.892 1047.09 454.943 1047.48 455.739 1048.25 456.278 1049.03 456.809 1050.02 457.074 1051.22 457.074ZM1070.17 430.909V460H1065.92V430.909H1070.17ZM1088.9 450.952V438.182H1093.16V460H1088.99V456.222H1088.76C1088.26 457.386 1087.45 458.357 1086.35 459.134 1085.25 459.901 1083.88 460.284 1082.24 460.284 1080.84 460.284 1079.6 459.976 1078.52 459.361 1077.45 458.736 1076.61 457.812 1075.99 456.591 1075.39 455.369 1075.08 453.859 1075.08 452.06V438.182H1079.33V451.548C1079.33 453.035 1079.74 454.219 1080.57 455.099 1081.39 455.98 1082.46 456.42 1083.78 456.42 1084.57 456.42 1085.36 456.222 1086.15 455.824 1086.94 455.426 1087.6 454.825 1088.12 454.02 1088.65 453.215 1088.91 452.192 1088.9 450.952ZM1107.47 460.44C1105.33 460.44 1103.47 459.981 1101.92 459.062 1100.38 458.134 1099.18 456.832 1098.34 455.156 1097.51 453.471 1097.09 451.496 1097.09 449.233 1097.09 446.998 1097.51 445.028 1098.34 443.324 1099.18 441.619 1100.36 440.289 1101.86 439.332 1103.38 438.376 1105.15 437.898 1107.18 437.898 1108.41 437.898 1109.6 438.101 1110.76 438.509 1111.91 438.916 1112.95 439.555 1113.87 440.426 1114.79 441.297 1115.51 442.429 1116.04 443.821 1116.57 445.204 1116.84 446.884 1116.84 448.864V450.369H1099.49V447.188H1112.67C1112.67 446.07 1112.45 445.08 1111.99 444.219 1111.54 443.348 1110.9 442.661 1110.07 442.159 1109.26 441.657 1108.3 441.406 1107.21 441.406 1106.01 441.406 1104.97 441.7 1104.08 442.287 1103.2 442.865 1102.52 443.622 1102.03 444.56 1101.56 445.488 1101.32 446.496 1101.32 447.585V450.071C1101.32 451.529 1101.58 452.77 1102.09 453.793 1102.61 454.815 1103.34 455.597 1104.26 456.136 1105.19 456.667 1106.28 456.932 1107.52 456.932 1108.32 456.932 1109.06 456.818 1109.72 456.591 1110.38 456.354 1110.96 456.004 1111.44 455.54 1111.92 455.076 1112.29 454.503 1112.55 453.821L1116.57 454.545C1116.24 455.729 1115.67 456.766 1114.83 457.656 1114.01 458.537 1112.97 459.223 1111.72 459.716 1110.48 460.199 1109.07 460.44 1107.47 460.44Z"/><path d="M775.337 600.113C775.337 598.972 775.807 597.831 776.614 597.026 777.42 596.221 778.562 595.751 779.704 595.751 780.847 595.751 781.989 596.221 782.795 597.026 783.601 597.831 784.072 598.972 784.072 600.113 784.072 600.717 783.937 601.254 783.736 601.791 783.534 602.328 783.198 602.798 782.795 603.201 782.392 603.603 781.922 603.939 781.384 604.14 780.847 604.342 780.309 604.476 779.704 604.476 779.1 604.476 778.562 604.342 778.025 604.14 777.487 603.939 777.017 603.603 776.614 603.201 776.211 602.798 775.875 602.328 775.673 601.791 775.404 601.254 775.337 600.65 775.337 600.113ZM776.143 600.113C776.143 600.583 776.211 601.053 776.412 601.456 776.614 601.858 776.815 602.261 777.151 602.597 777.487 602.932 777.89 603.201 778.293 603.402 778.697 603.603 779.167 603.67 779.637 603.67 780.578 603.67 781.519 603.268 782.123 602.597 782.795 601.925 783.131 601.053 783.131 600.046 783.131 599.107 782.728 598.167 782.123 597.496 781.451 596.825 780.578 596.422 779.637 596.422 779.167 596.422 778.697 596.489 778.293 596.691 777.89 596.892 777.487 597.16 777.151 597.496 776.815 597.831 776.546 598.234 776.412 598.637 776.211 599.174 776.143 599.644 776.143 600.113ZM779.032 602.597H778.025V597.63H779.973C780.981 597.63 781.787 598.167 781.787 599.174 781.787 599.509 781.72 599.778 781.519 600.046 781.317 600.315 781.115 600.516 780.779 600.583L781.787 602.597H780.645L779.704 600.784H778.965V602.597H779.032ZM779.906 598.57H779.032V599.778H779.906C780.309 599.778 780.712 599.644 780.712 599.174 780.712 598.704 780.309 598.57 779.906 598.57Z"/><path clip-rule="evenodd" d="M570.474 634.543 552.601 607.764V634.543H544.673V595.751H553.878L570.743 621.12V595.751H578.671V634.543H570.474Z" fill-rule="evenodd"/><path clip-rule="evenodd" d="M596.88 607.496C588.817 607.496 582.366 613.469 582.366 621.389 582.366 629.375 588.75 635.147 596.812 635.147 604.875 635.147 611.325 629.174 611.325 621.187 611.258 613.335 604.808 607.496 596.88 607.496ZM596.812 628.033C593.184 628.033 590.228 625.281 590.228 621.255 590.228 617.228 593.117 614.543 596.745 614.543 600.373 614.543 603.33 617.295 603.33 621.255 603.33 625.214 600.441 628.033 596.812 628.033Z" fill-rule="evenodd"/><path clip-rule="evenodd" d="M631.28 608.033V615.617C630.473 615.483 629.6 615.416 628.793 615.416 625.098 615.416 622.478 617.966 622.478 622.933V634.544H614.885V608.101H622.209V611.993H622.276C623.687 608.973 626.375 607.832 629.129 607.832 629.936 607.765 630.608 607.899 631.28 608.033Z" fill-rule="evenodd"/><path clip-rule="evenodd" d="M653.454 595.685V611.054H653.387C650.632 607.832 647.003 607.564 645.458 607.564 637.866 607.564 632.759 614.544 632.759 621.255 632.759 628.369 637.664 635.014 645.391 635.014 647.205 635.014 651.169 634.745 653.655 631.121H653.722V634.477H661.248V595.685H653.454V595.685ZM647.138 628.034C643.51 628.034 640.553 625.282 640.553 621.255 640.553 617.228 643.51 614.544 647.138 614.544 650.766 614.544 653.722 617.295 653.722 621.255 653.655 625.215 650.699 628.034 647.138 628.034Z" fill-rule="evenodd"/><path clip-rule="evenodd" d="M677.641 634.543 663.598 595.751H672.266L682.344 625.281 692.49 595.751H701.023L686.913 634.543H677.641Z" fill-rule="evenodd"/><path clip-rule="evenodd" d="M718.763 595.685H704.317V634.544H712.38V620.852H718.494C726.624 620.852 732.671 616.758 732.671 608.168 732.604 599.913 726.557 595.685 718.763 595.685ZM718.091 613.336H712.312V603.269H718.024C721.383 603.269 724.541 604.544 724.541 608.302 724.541 611.993 721.249 613.336 718.091 613.336Z" fill-rule="evenodd"/><path clip-rule="evenodd" d="M762.503 634.543 744.631 607.764V634.543H736.702V595.751H745.907L762.772 621.12V595.751H770.7V634.543H762.503Z" fill-rule="evenodd"/></g><path clip-rule="evenodd" d="M424.536 653C418.288 644.409 414.928 634.007 414.928 623.403 414.928 595.55 437.504 573 465.321 573 493.138 573 515.713 595.55 515.713 623.403 515.713 634.007 512.354 644.409 506.105 653L481.917 613.671 479.565 617.631 481.917 628.638 465.321 600.181 455.041 617.564 457.46 628.638 448.725 613.738 424.536 653Z" fill="#3e5fff" fill-rule="evenodd"/></svg>